<?xml version="1.0" encoding="utf-8"?>
<!-- Generator: Adobe Illustrator 20.1.0, SVG Export Plug-In . SVG Version: 6.00 Build 0)  -->
<svg version="1.1" id="Layer_1" xmlns="http://www.w3.org/2000/svg" xmlns:xlink="http://www.w3.org/1999/xlink" x="0px" y="0px"
	 viewBox="0 0 413.6 505.5" style="enable-background:new 0 0 413.6 505.5;" xml:space="preserve">
<style type="text/css">
	.st0{fill:#F8991D;}
	.st1{fill:#151514;}
	.st2{opacity:0.52;}
	.st3{fill:#5C5A8C;stroke:#000000;stroke-miterlimit:10;}
	.st4{fill:#F4D5BA;}
	.st5{fill:#F7EC13;}
	.st6{fill:#FFFFFF;}
	.st7{fill:#736DB2;}
	.st8{fill:#A7A3A3;}
	.st9{fill:#3A3939;}
</style>
<g>
	<path class="st0" d="M148,397.7l-77.8-10.3L0,411.2v94.3h287.2c0,0-26.6-46.1-36.1-48s-48.8-24.8-48.8-24.8L148,397.7z"/>
	<path class="st1" d="M148,397.7l-19.5-2.3L109,393l-39-4.8l0.4,0L53,394.3l-17.5,6.1l-35,12.1l0.9-1.3l0.3,47.1l0.1,47.1L0,503.7
		l71.8-0.1l35.9-0.1l35.9,0.1l71.8,0.1l35.9,0.1l17.9,0.1l17.9,0.1l-1.3,2.3c-3.7-6.5-7.6-12.9-11.6-19.2c-4-6.3-8.2-12.5-12.8-18.4
		c-1.1-1.5-2.3-2.9-3.5-4.3c-1.2-1.4-2.5-2.7-3.8-3.9c-0.3-0.3-0.7-0.6-1-0.8c-0.3-0.3-0.7-0.5-1.1-0.7c-0.2-0.1-0.4-0.2-0.5-0.3
		l-0.5-0.2l-1.4-0.4c-0.9-0.2-1.8-0.6-2.7-1c-0.9-0.3-1.8-0.7-2.7-1.1c-3.5-1.5-6.8-3.2-10.2-4.9c-3.3-1.7-6.7-3.5-10-5.3
		c-6.6-3.6-13.1-7.3-19.6-11.1l-2.4-1.4l-2.4-1.6l-4.7-3.1l-9.4-6.2l-18.8-12.4L148,397.7z M148,397.7l19.1,11.9l19,12l9.5,6l4.8,3
		l2.4,1.5l2.4,1.4c6.5,3.6,13.1,7.2,19.8,10.7c3.3,1.7,6.6,3.5,10,5.1c3.3,1.7,6.7,3.3,10.1,4.7c0.9,0.4,1.7,0.7,2.5,1
		c0.8,0.3,1.6,0.7,2.6,0.9c0.4,0.1,0.9,0.2,1.3,0.4l0.8,0.3c0.3,0.1,0.5,0.2,0.7,0.4c0.5,0.2,0.9,0.5,1.3,0.8
		c0.4,0.3,0.8,0.6,1.2,0.9c1.5,1.3,2.9,2.6,4.1,4.1c1.3,1.4,2.5,2.9,3.7,4.3c4.7,5.9,9,12.1,13.1,18.4c4.1,6.3,8.1,12.7,12,19.2
		l1.4,2.3l-2.7,0l-17.9,0.1l-17.9,0.1l-35.9,0.1l-71.8,0.1l-35.9,0.1l-35.9-0.1L0,507.2l-1.8,0l0-1.8l0.1-47.1l0.3-47.1l0-1l0.9-0.3
		l35.2-11.7l17.6-5.8l17.6-5.8l0.2-0.1l0.2,0l38.8,5.6l19.4,2.8L148,397.7z"/>
</g>
<path class="st2" d="M125.3,500.8c-11.7-36.1,34.5-57.5,60.7-68.4c2.7-1.1,5.4-2.2,8.1-3.2l-46.6-30.1l-77.8-10.3l-70.2,23.8V507
	h128.2C126.8,505,125.9,502.9,125.3,500.8z"/>
<circle class="st3" cx="184.9" cy="420.9" r="26.2"/>
<g>
	<path class="st4" d="M153.9,309.7c0,0-8.7,44.2-17.9,52.3c-9.2,8.1-40,27.9-40,27.9s10.7,34.7,32.9,47.9s63.6,19,63.6,19
		s2.4-63.5,14.1-85.5s14.6-38.6,14.6-38.6L153.9,309.7z"/>
	<path d="M153.9,309.7c-1.5,8.6-3.4,17.1-5.6,25.5c-1.1,4.2-2.4,8.4-3.8,12.6c-0.7,2.1-1.5,4.1-2.4,6.2c-0.9,2-1.8,4-3.1,5.9
		c-0.3,0.5-0.6,1-1,1.4c-0.3,0.5-0.8,0.9-1.2,1.3c-0.9,0.8-1.6,1.5-2.5,2.2c-1.7,1.4-3.5,2.7-5.2,4.1c-3.5,2.6-7,5.2-10.6,7.7
		c-7.1,5-14.4,9.9-21.7,14.7l0.6-1.7c0.8,2.4,1.7,4.9,2.7,7.2c1,2.4,2.1,4.8,3.2,7.1c1.2,2.3,2.3,4.6,3.6,6.9c0.6,1.1,1.3,2.2,2,3.3
		c0.7,1.1,1.3,2.2,2.1,3.3c0.7,1.1,1.4,2.2,2.2,3.2l2.3,3.1c1.7,1.9,3.3,3.9,5.2,5.6l1.4,1.3c0.5,0.4,1,0.8,1.5,1.2l1.5,1.2
		c0.5,0.4,1,0.8,1.5,1.1l3.1,2.1l0.1,0.1l0,0c-0.1-0.1,0,0,0,0l0,0l0.2,0.1l0.4,0.2l0.9,0.5l1.7,0.9c1.2,0.7,2.3,1.1,3.5,1.7
		c1.2,0.5,2.3,1.1,3.5,1.6l3.6,1.5l3.7,1.3c1.2,0.5,2.4,0.9,3.7,1.2c1.2,0.4,2.5,0.8,3.7,1.2c2.5,0.7,5,1.5,7.5,2.1
		c2.5,0.7,5,1.3,7.6,1.9c2.5,0.6,5.1,1.1,7.6,1.7c2.6,0.5,5.1,1,7.7,1.5c2.6,0.5,5.1,0.9,7.7,1.3l-2.2,1.9c0.2-5.4,0.6-10.7,1-16.1
		c0.4-5.4,0.9-10.7,1.5-16.1c0.6-5.3,1.3-10.7,2.1-16c0.4-2.7,0.8-5.3,1.3-8c0.5-2.7,1-5.3,1.6-7.9c0.6-2.6,1.2-5.3,1.9-7.9
		c0.7-2.6,1.5-5.2,2.5-7.8c0.5-1.3,1-2.6,1.6-3.8c0.3-0.6,0.6-1.2,0.9-1.9c0.3-0.6,0.6-1.2,0.9-1.8c1.3-2.4,2.5-4.7,3.6-7.1l1.7-3.6
		l1.6-3.6c1-2.4,2-4.9,2.9-7.4c0.9-2.5,1.8-5,2.5-7.5c0.8-2.5,1.5-5.1,2-7.6l0.8,1.3l-16.8-6l-16.8-6.1l-16.8-6.1L153.9,309.7z
		 M153.9,309.7l17,5.4l16.9,5.5l16.9,5.5l16.9,5.6l1,0.3l-0.2,1c-0.5,2.7-1.1,5.3-1.9,7.9c-0.7,2.6-1.5,5.2-2.4,7.7
		c-0.9,2.6-1.8,5.1-2.8,7.6l-1.6,3.7l-1.6,3.7c-1.1,2.5-2.3,4.9-3.5,7.3c-0.6,1.2-1.2,2.4-1.7,3.5c-0.5,1.2-1,2.4-1.4,3.6
		c-0.9,2.5-1.6,5-2.3,7.5c-0.7,2.5-1.3,5.1-1.8,7.7c-0.5,2.6-1,5.2-1.5,7.8c-0.4,2.6-0.8,5.3-1.2,7.9c-0.7,5.3-1.3,10.6-1.9,15.9
		c-0.6,5.3-1,10.6-1.4,15.9c-0.4,5.3-0.7,10.7-0.9,16l-0.1,2.2l-2.2-0.3c-2.7-0.4-5.2-0.8-7.8-1.3c-2.6-0.5-5.2-1-7.8-1.5
		c-2.6-0.5-5.2-1.1-7.7-1.7c-2.6-0.6-5.1-1.2-7.7-1.9c-2.6-0.7-5.1-1.4-7.6-2.2c-1.3-0.4-2.5-0.8-3.8-1.2c-1.3-0.4-2.5-0.8-3.8-1.3
		l-3.7-1.4l-3.7-1.5c-1.2-0.5-2.5-1.1-3.7-1.7c-1.2-0.6-2.5-1.1-3.6-1.8l-1.7-1l-0.9-0.5l-0.4-0.2l-0.2-0.1l-0.1-0.1l-0.1,0
		l-0.1-0.1l-3.4-2.3c-0.6-0.4-1.1-0.8-1.6-1.3l-1.6-1.3c-0.5-0.4-1.1-0.9-1.5-1.3l-1.4-1.4c-2-1.9-3.7-4-5.4-6l-2.4-3.2
		c-0.8-1.1-1.5-2.2-2.3-3.3c-0.8-1.1-1.4-2.2-2.1-3.4c-0.7-1.1-1.4-2.3-2-3.5c-1.3-2.3-2.5-4.7-3.6-7.1c-1.1-2.4-2.2-4.8-3.2-7.3
		c-1-2.5-1.9-4.9-2.7-7.5l-0.4-1.1l1-0.6c7.3-4.7,14.6-9.4,21.9-14.2c3.6-2.4,7.2-4.9,10.7-7.4c1.8-1.3,3.5-2.5,5.2-3.9
		c0.8-0.7,1.7-1.4,2.5-2c0.4-0.3,0.7-0.7,1-1.1c0.3-0.4,0.6-0.8,0.9-1.2c1.2-1.7,2.2-3.6,3.1-5.6c0.9-1.9,1.7-3.9,2.5-6
		c1.6-4,2.9-8.2,4.2-12.3c1.3-4.2,2.4-8.4,3.5-12.6C151.9,318.2,153,313.9,153.9,309.7z"/>
</g>
<path class="st2" d="M144.5,361.8c10.1,3.6,19.1,9.8,27.2,16.6c9.6,8,18.3,17.6,25.5,28.1c2.1-13.8,5.1-27.2,9.4-35.2
	c11.7-22,14.6-38.6,14.6-38.6l-67.4-23.1c0,0-7.6,38.8-16.2,50.4C140,360.4,142.3,361,144.5,361.8z"/>
<g>
	<path class="st4" d="M198.8,122.3c47.8-5.9,110.7,29.2,112.7,92.8s-6.4,58.5,0,71.5s14.4,26.5,10.7,48.1
		c-3.7,21.5-41.8,60.9-55.6,63.7c-13.8,2.8-88.1-14.7-101.5-46.4s-28.3-44.8-28.3-44.8s-38.4-59.6-26.4-105.4S185.1,124,198.8,122.3
		z"/>
	<path d="M198.8,122.3c11.2-1.4,22.6-0.5,33.6,2.1c5.5,1.2,10.9,3,16.1,5.1c5.2,2.1,10.3,4.6,15.2,7.4c4.9,2.9,9.5,6.1,13.9,9.7
		c4.4,3.6,8.5,7.5,12.1,11.8c3.7,4.3,7.1,8.8,9.9,13.8c2.9,4.9,5.3,10,7.2,15.4c1.9,5.4,3.2,10.9,4.2,16.5l0.6,4.2
		c0.2,1.4,0.2,2.8,0.4,4.2c0.2,2.8,0.3,5.7,0.4,8.5c0.3,11.3,0.4,22.6-0.1,33.9c-0.3,5.7-0.8,11.3-1.5,16.9
		c-0.3,2.8-0.7,5.6-0.3,8.1c0.4,2.5,1.7,5,2.9,7.5c2.5,5,5.2,10.1,7.2,15.5c2.1,5.4,3.4,11.1,3.9,16.9c0.4,5.8,0,11.6-1.1,17.3
		c-0.8,3-1.8,5.7-3.1,8.3c-1.2,2.6-2.6,5.2-4.1,7.6c-6,9.8-13.3,18.6-21.2,26.8c-4,4.1-8.2,8-12.6,11.6c-2.2,1.8-4.5,3.5-7,5.1
		c-2.5,1.6-5,3-8.3,3.8l-1.2,0.2c-0.3,0.1-0.7,0.1-1.1,0.1l-1.2,0.1c-0.4,0-0.7,0-1.1,0c-0.7,0-1.5,0-2.2-0.1
		c-0.7,0-1.5-0.1-2.2-0.2c-2.9-0.2-5.7-0.7-8.6-1.1c-5.6-1-11.2-2.3-16.7-3.7c-11-3-21.8-6.8-32.1-11.6c-5.2-2.4-10.2-5.1-15.1-8.2
		c-4.8-3.1-9.4-6.6-13.5-10.8c-1-1-2-2.2-2.9-3.3l-1.3-1.8c-0.4-0.6-0.9-1.2-1.3-1.8c-0.8-1.3-1.6-2.5-2.2-3.9
		c-0.7-1.4-1.2-2.6-1.8-3.9c-0.6-1.3-1.1-2.6-1.7-3.9l-1.8-3.8c-0.6-1.3-1.2-2.5-1.9-3.8c-0.6-1.3-1.3-2.5-1.9-3.7
		c-2.7-4.9-5.5-9.7-8.7-14.3c-1.6-2.3-3.3-4.5-5-6.7c-1.8-2.1-3.6-4.3-5.5-6.1l-0.2-0.2l-0.1-0.1c-2.6-4.2-5-8.5-7.2-12.9
		c-2.2-4.4-4.4-8.8-6.3-13.3c-3.9-9-7.3-18.2-9.9-27.7c-1.3-4.7-2.4-9.5-3.2-14.4c-0.8-4.8-1.4-9.7-1.5-14.7
		c-0.2-4.9,0-9.8,0.7-14.7c0.7-4.9,1.9-9.7,3.6-14.3c0.5-1.1,0.8-2.3,1.4-3.4l1.5-3.4c1.1-2.2,2.2-4.4,3.5-6.4
		c2.5-4.2,5.3-8.2,8.5-12c3.1-3.8,6.4-7.4,9.9-10.8c3.5-3.4,7.2-6.6,11-9.7c7.6-6.1,15.7-11.6,24.2-16.5c4.2-2.4,8.6-4.7,13-6.7
		c2.2-1,4.5-1.9,6.8-2.8C194.1,123.5,196.4,122.7,198.8,122.3z M198.8,122.3c-2.4,0.4-4.8,1.1-7,2c-2.3,0.9-4.5,1.8-6.8,2.8
		c-4.4,2-8.8,4.3-13,6.7c-4.2,2.4-8.4,5-12.4,7.8c-4,2.8-8,5.7-11.7,8.8c-3.8,3.1-7.4,6.3-10.9,9.8c-3.5,3.4-6.7,7.1-9.8,10.8
		c-3.1,3.8-5.8,7.8-8.3,12c-1.3,2.1-2.3,4.3-3.4,6.4l-1.5,3.3c-0.5,1.1-0.9,2.3-1.3,3.4c-1.6,4.6-2.7,9.3-3.3,14.1
		c-0.6,4.8-0.7,9.7-0.5,14.5c0.2,4.9,0.9,9.7,1.7,14.5c0.9,4.8,2,9.5,3.4,14.2c2.7,9.3,6.2,18.4,10.2,27.3c2,4.4,4.2,8.8,6.5,13.1
		c2.3,4.3,4.7,8.5,7.3,12.6l-0.2-0.3c4.3,4,7.8,8.5,11.2,13.1c3.3,4.6,6.4,9.5,9.1,14.4c0.7,1.2,1.4,2.5,2,3.8
		c0.7,1.3,1.4,2.5,2,3.8l1.9,3.9c0.6,1.3,1.2,2.6,1.7,3.9c0.6,1.3,1.2,2.6,1.8,3.8c0.5,1.2,1.3,2.3,2,3.5c0.3,0.6,0.8,1.1,1.2,1.6
		l1.2,1.6c0.9,1,1.8,2.1,2.8,3c3.9,3.9,8.3,7.2,13,10.2c4.7,3,9.6,5.5,14.7,7.9c10.1,4.7,20.7,8.4,31.5,11.2
		c5.4,1.4,10.9,2.7,16.3,3.6c2.7,0.4,5.5,0.9,8.2,1.1c0.7,0.1,1.4,0.1,2,0.2c0.7,0.1,1.4,0.1,2,0.1c0.3,0,0.7,0,1,0l0.9,0
		c0.3,0,0.6,0,1-0.1l0.9-0.1c2.3-0.5,4.7-1.8,7-3.3c2.3-1.5,4.5-3.1,6.7-4.8c4.3-3.5,8.4-7.3,12.3-11.3c7.8-8,15.1-16.6,21-26
		c1.5-2.3,2.8-4.8,4-7.2c1.2-2.4,2.2-5.1,2.9-7.5c1.2-5.3,1.6-10.9,1.3-16.4c-0.4-5.5-1.6-10.9-3.5-16.1c-1.9-5.2-4.4-10.2-6.9-15.3
		c-1.2-2.5-2.6-5.2-3-8.3c-0.4-3.1,0.1-6,0.4-8.8c0.8-5.6,1.4-11.2,1.7-16.8c0.7-11.2,0.8-22.5,0.7-33.8c-0.1-2.8,0-5.6-0.2-8.4
		c-0.1-1.4-0.1-2.8-0.3-4.2l-0.5-4.2c-0.8-5.5-2.1-11-3.9-16.3c-1.8-5.3-4.2-10.4-6.9-15.3c-2.8-4.9-6.1-9.5-9.7-13.8
		c-3.6-4.3-7.6-8.3-12-11.9c-4.3-3.6-8.9-6.9-13.8-9.8c-9.7-5.7-20.3-10.1-31.2-12.6C221.5,121.9,210,121,198.8,122.3z"/>
</g>
<path class="st2" d="M218,365.6c-12.1-13.5-20.8-28.7-26.1-46c-5.5-18-7.6-37-8-55.8c-0.5-27.4-0.2-60.8,17.4-83.6
	c9.8-12.7,24-16.1,39.4-17c17.3-1,34.6-1,52-1c-22.7-29.3-61.7-43.9-93.8-39.9c-13.7,1.7-76.3,33.6-88.3,79.4
	c-12.1,45.8,26.4,105.4,26.4,105.4s14.9,13.1,28.3,44.8c10.8,25.6,61.1,41.9,87.5,45.8C240.8,387.5,228.6,377.4,218,365.6z"/>
<g>
	<path class="st4" d="M158.2,310.6c0,0-12.7-22.3-27.3-21.2c-14.7,1.1-12.7,23-4.3,32.2s23,23.7,27,23s9.7-7.8,9.7-7.8"/>
	<path d="M158.2,310.6c0,0-1.1-1.6-3.2-4.2c-2.1-2.6-5.3-6.3-9.7-9.9c-2.2-1.7-4.8-3.4-7.7-4.5c-1.5-0.5-3-0.9-4.5-1
		c-0.8,0-1.6,0-2.3,0.1c-0.4,0.1-0.9,0.1-1.2,0.2c-0.3,0.1-0.7,0.2-1.1,0.3c-1.4,0.5-2.7,1.3-3.7,2.6c-1,1.2-1.7,2.7-2.1,4.3
		c-0.9,3.3-0.7,7,0.1,10.5c0.8,3.5,2.1,7,4.2,9.8c0.5,0.7,1,1.3,1.7,2c0.6,0.7,1.2,1.4,1.9,2.1c1.2,1.4,2.5,2.7,3.7,4
		c2.5,2.6,4.9,5.1,7.3,7.5c2.4,2.3,4.6,4.4,6.8,6.2c1.1,0.9,2.2,1.7,3.3,2.3c0.5,0.3,1.1,0.5,1.5,0.7c0.1,0,0.2,0.1,0.3,0
		c0,0,0.1,0,0.1,0l0.2,0c0.3-0.1,0.6-0.1,0.8-0.2c0.9-0.3,1.9-0.9,2.7-1.4c0.8-0.6,1.6-1.1,2.2-1.7c1.3-1.1,2.3-2,2.9-2.6
		c0.6-0.6,1-1,1-1s-0.3,0.4-0.8,1.1c-0.6,0.7-1.4,1.8-2.5,3.1c-0.6,0.6-1.3,1.3-2,2c-0.8,0.7-1.7,1.4-2.9,2
		c-0.3,0.2-0.6,0.2-0.9,0.3l-0.2,0.1c-0.2,0-0.3,0-0.4,0.1c-0.2,0-0.4,0-0.6,0c-0.8-0.1-1.5-0.3-2.1-0.6c-1.3-0.6-2.5-1.4-3.8-2.2
		c-2.5-1.7-5-3.7-7.5-5.9c-2.5-2.2-5.2-4.6-7.8-7.2c-1.3-1.3-2.6-2.6-3.9-4c-1.3-1.4-2.6-2.6-3.9-4.4c-2.5-3.4-4-7.2-5-11.3
		c-0.8-4-1-8.3,0.1-12.4c0.5-2.1,1.5-4.1,3-5.7c1.4-1.7,3.4-2.9,5.4-3.5c0.5-0.2,1-0.3,1.6-0.4c0.6-0.1,0.9-0.1,1.4-0.2
		c1.1-0.1,2-0.1,3,0c1.9,0.2,3.7,0.8,5.4,1.5c3.3,1.4,5.9,3.5,8.1,5.5c2.2,2,3.9,4.1,5.4,6c1.5,1.9,2.6,3.6,3.5,5.1
		c0.9,1.4,1.5,2.6,2,3.4C158,310.2,158.2,310.6,158.2,310.6z"/>
</g>
<path class="st2" d="M146.6,322.3c-0.3-1.9-0.5-3.7-0.7-5.6c-1.6-4.5-4.2-8.7-6.5-12.8c-2.5-4.4-4.2-10.4-7.6-14.5
	c-0.3,0-0.6,0-0.9,0c-14.7,1.1-12.7,23-4.3,32.2c5,5.6,12.4,13,18.3,18c1.6-4.1,2.7-8.4,2.8-12.8
	C147.2,325.3,146.9,323.9,146.6,322.3z"/>
<g>
	<path class="st5" d="M175.6,239.2c0,0,24,2.1,34.7,4.2c10.7,2.1,15.7,6.7,15.7,6.7v11.3c0,0-34.7-4.2-46.3-2.8
		c-11.7,1.4-16.3,4.6-16.3,4.6L175.6,239.2z"/>
	<path d="M175.6,239.2c4.4,0.1,8.7,0.3,13,0.6c4.3,0.3,8.7,0.6,13,1.1c2.2,0.2,4.3,0.5,6.5,0.8l1.6,0.3l0.8,0.1l0.8,0.2
		c1,0.2,2.2,0.5,3.3,0.7c2.2,0.6,4.3,1.3,6.4,2.3c1,0.5,2,1,3,1.6c0.5,0.3,1,0.6,1.5,0.9c0.5,0.3,0.9,0.6,1.5,1.1l0.6,0.5l0,0.8
		c0.1,3.8,0.1,7.5,0.1,11.3l0,2.2l-2.2-0.2l-7.9-0.8l-7.9-0.8c-5.3-0.5-10.5-1-15.8-1.3c-2.6-0.2-5.2-0.3-7.8-0.4
		c-1.3,0-2.6,0-3.9,0c-0.6,0-1.3,0.1-1.9,0.1c-0.3,0-0.6,0-0.9,0.1l-1,0.1c-1.3,0.1-2.5,0.3-3.8,0.5c-1.3,0.2-2.5,0.5-3.8,0.8
		c-1.2,0.3-2.5,0.7-3.7,1.1c-0.6,0.2-1.2,0.4-1.8,0.7c-0.6,0.2-1.2,0.5-1.6,0.8l-4,2.3l2.1-3.9l3.3-5.9l3.3-5.9
		c1.1-2,2.2-3.9,3.4-5.9C173.2,243.1,174.4,241.1,175.6,239.2z M175.6,239.2c-0.9,2.1-1.8,4.1-2.7,6.2c-0.9,2.1-1.8,4.1-2.8,6.2
		l-2.8,6.1l-2.9,6.1l-1.8-1.6c0.7-0.5,1.3-0.8,1.9-1.1c0.6-0.3,1.3-0.6,1.9-0.9c1.3-0.5,2.6-1,3.9-1.3c1.3-0.4,2.6-0.7,4-1
		c1.3-0.3,2.7-0.6,4-0.8l1-0.2c0.4-0.1,0.7-0.1,1-0.1c0.7-0.1,1.4-0.2,2.1-0.2c1.4-0.1,2.7-0.1,4.1-0.1c2.7,0,5.4,0,8,0.1
		c1.3,0,2.7,0.1,4,0.2l4,0.3c2.7,0.2,5.3,0.4,8,0.6c5.3,0.5,10.6,1.1,15.9,1.7l-2.2,1.9c0-3.8,0.1-7.5,0.1-11.3l0.6,1.3
		c-0.3-0.2-0.7-0.6-1.1-0.9c-0.4-0.3-0.8-0.6-1.3-0.8c-0.9-0.5-1.8-1-2.7-1.5c-0.9-0.5-1.9-0.9-2.8-1.3c-1-0.4-2-0.7-3-1.1
		c-1-0.3-2-0.6-3-0.8l-0.8-0.2l-0.8-0.2l-1.6-0.3c-2.1-0.4-4.2-0.8-6.4-1.2c-2.1-0.4-4.3-0.7-6.4-1l-6.4-1L175.6,239.2z"/>
</g>
<path class="st2" d="M201.1,252.7c-9.3-1.8-18.8-3.8-28.4-3.7c-0.8,0-1.5,0.1-2.2,0.1l-7.2,14.1c0,0,4.7-3.2,16.3-4.6
	s46.3,2.8,46.3,2.8v-0.8C218.1,256.7,209.6,254.4,201.1,252.7z"/>
<g>
	<path class="st5" d="M305.3,230.1c0,0-12.1,2-17.5,4s-7.9,6.3-7.9,6.3v10.7c0,0,17.5-4,23.4-2.7s8.3,4.3,8.3,4.3L305.3,230.1z"/>
	<path d="M305.3,230.1l-6.8,1.9c-2.3,0.6-4.5,1.3-6.7,2c-1.1,0.4-2.2,0.7-3.2,1.2c-0.4,0.2-1.1,0.5-1.5,0.7
		c-0.4,0.2-0.9,0.5-1.4,0.8c-0.9,0.6-1.7,1.3-2.4,2.1c-0.4,0.4-0.7,0.8-1,1.2c-0.3,0.4-0.6,0.9-0.8,1.2l0.2-0.9l0.1,5.3
		c0,1.8,0.1,3.6,0.1,5.3l-2.4-1.9c2.7-0.6,5.5-1.2,8.2-1.7c1.4-0.2,2.8-0.4,4.2-0.6c1.4-0.2,2.8-0.4,4.2-0.5
		c1.4-0.1,2.9-0.2,4.3-0.2c0.4,0,0.8,0,1.1,0.1c0.4,0,0.7,0,1.2,0.1c0.4,0.1,0.8,0.1,1.2,0.2l1,0.3c0.8,0.2,1.5,0.5,2.2,0.8
		c0.7,0.3,1.4,0.6,2,1c0.7,0.4,1.3,0.8,1.9,1.3c0.3,0.2,0.6,0.5,0.9,0.8c0.3,0.3,0.5,0.5,0.9,1l-2.7,1.4c-0.4-1.9-0.9-3.8-1.3-5.7
		l-1.2-5.8c-0.4-1.9-0.8-3.8-1.2-5.8C306,234,305.6,232,305.3,230.1z M305.3,230.1c0.7,1.8,1.4,3.7,2.1,5.5c0.7,1.8,1.3,3.7,2,5.6
		l1.9,5.6c0.6,1.9,1.2,3.7,1.8,5.6l1.9,5.8l-4.6-4.5c-0.1-0.1-0.4-0.3-0.6-0.5c-0.2-0.2-0.5-0.4-0.7-0.5c-0.5-0.3-1-0.6-1.6-0.9
		c-0.5-0.3-1.1-0.5-1.7-0.7c-0.6-0.2-1.2-0.4-1.8-0.5l-1-0.2c-0.2,0-0.5-0.1-0.8-0.1c-0.3,0-0.6,0-0.9-0.1c-0.3,0-0.6,0-0.9,0
		c-0.6,0-1.3,0-2,0.1c-0.7,0-1.3,0.1-2,0.2c-1.3,0.1-2.7,0.3-4,0.5c-1.3,0.2-2.7,0.4-4,0.7c-2.7,0.4-5.4,1-8,1.5l-2.4,0.5l0-2.4
		c0-1.8,0.1-3.6,0.1-5.3l0.1-5.3l0-0.5l0.2-0.3c0.4-0.7,0.8-1.1,1.2-1.6c0.4-0.5,0.9-0.9,1.4-1.4c1-0.9,2-1.6,3.1-2.3
		c0.6-0.3,1.1-0.6,1.7-0.9c0.7-0.3,1.1-0.4,1.8-0.6c1.2-0.4,2.4-0.6,3.5-0.9c2.3-0.5,4.7-0.8,7-1.1
		C300.6,230.5,303,230.2,305.3,230.1z"/>
</g>
<path class="st2" d="M287.9,245.8c-2.4,1.5-5,3.1-7.1,5.1c3.7-0.8,17.4-3.6,22.5-2.5c5.9,1.3,8.3,4.3,8.3,4.3l-3.7-13.6
	C300.6,239.4,294.3,241.8,287.9,245.8z"/>
<g>
	<polygon class="st6" points="177.2,290.8 164.9,271 219.6,269.3 236.2,295.1 	"/>
	<path d="M177.2,290.8c-2.3-3.2-4.5-6.4-6.7-9.6c-2.2-3.2-4.4-6.4-6.5-9.7l-1-1.5l1.9-0.1c4.6-0.3,9.1-0.6,13.7-0.8
		c4.6-0.2,9.1-0.5,13.7-0.7l13.7-0.6l13.7-0.5l1.1,0l0.6,0.9l4.2,6.4l4.1,6.5l4.1,6.5c1.4,2.2,2.7,4.3,4.1,6.5l2,3.2l-3.7-0.3
		c-4.9-0.4-9.8-0.8-14.7-1.3c-4.9-0.5-9.8-0.9-14.7-1.4c-4.9-0.5-9.8-1-14.7-1.6C187,292.1,182.1,291.5,177.2,290.8z M177.2,290.8
		c4.9,0.1,9.9,0.2,14.8,0.3c4.9,0.1,9.9,0.3,14.8,0.5c4.9,0.2,9.9,0.5,14.8,0.7c4.9,0.2,9.8,0.6,14.8,0.8l-1.7,2.8
		c-1.4-2.1-2.8-4.3-4.2-6.4l-4.2-6.4l-4.2-6.4l-4.1-6.5l1.7,0.9l-13.7,0.4l-13.7,0.3c-4.6,0.1-9.1,0.1-13.7,0.2
		c-4.6,0.1-9.1,0-13.7,0.1l0.9-1.6c1.9,3.4,3.9,6.8,5.8,10.1C173.5,284,175.4,287.4,177.2,290.8z"/>
</g>
<g>
	<polygon class="st6" points="304.1,284.8 310.2,265 283.1,263.2 274.9,289.1 	"/>
	<path d="M304.1,284.8c0.4-1.7,0.7-3.4,1.1-5.1c0.4-1.7,0.8-3.4,1.2-5.1c0.8-3.4,1.7-6.7,2.5-10.1l1.2,1.8l-6.8-0.2
		c-2.3-0.1-4.5-0.2-6.8-0.3c-2.3-0.1-4.5-0.2-6.8-0.3l-6.8-0.4l2-1.4c-0.7,2.2-1.3,4.3-2,6.5l-2.1,6.4c-1.4,4.3-2.9,8.6-4.4,12.8
		l-1.8-2.2l7.3-0.8c2.4-0.3,4.9-0.5,7.4-0.7c2.5-0.2,4.9-0.4,7.4-0.6C299.2,285.1,301.6,284.9,304.1,284.8z M304.1,284.8
		c-2.4,0.6-4.8,1.1-7.2,1.7c-2.4,0.5-4.8,1-7.2,1.5c-2.4,0.5-4.8,1-7.3,1.4l-7.3,1.3l-2.6,0.5l0.8-2.7c1.3-4.3,2.5-8.7,3.9-13l2-6.5
		c0.7-2.2,1.4-4.3,2.1-6.5l0.5-1.5l1.5,0.1l6.8,0.5c2.3,0.2,4.5,0.4,6.8,0.6c2.3,0.2,4.5,0.4,6.8,0.6l6.8,0.7l1.8,0.2l-0.6,1.6
		c-1.2,3.2-2.3,6.5-3.6,9.7c-0.6,1.6-1.2,3.2-1.9,4.8C305.5,281.6,304.8,283.2,304.1,284.8z"/>
</g>
<g>
	<path class="st4" d="M276.2,276.2c0,0-3.3,11.1-3.3,12.9s10.7,6,10.7,6s-1.7,7.4-5,12c-3.3,4.6-7.3,7.4-7.3,7.4"/>
	<path d="M276.2,276.2c-0.1,1.1-0.2,2.2-0.4,3.3c-0.1,1.1-0.3,2.1-0.5,3.2c-0.2,1.1-0.3,2.1-0.5,3.2c-0.2,1-0.3,2.1-0.4,3l0,0.2l0,0
		c0-0.1,0,0.3,0-0.3l0,0l0,0l0,0l0,0.1c0,0.1,0-0.1,0-0.1c0-0.1,0-0.1-0.1-0.2c0-0.1,0-0.1,0-0.1l0,0c0,0,0,0,0,0
		c0,0,0.1,0.1,0.2,0.1c0.3,0.2,0.7,0.5,1.1,0.7c0.9,0.5,1.8,0.9,2.7,1.3c0.9,0.4,1.9,0.8,2.9,1.3l2.9,1.2l1.6,0.7l-0.4,1.6
		c-0.1,0.5-0.3,1-0.4,1.5c-0.1,0.5-0.3,1-0.5,1.5c-0.3,1-0.7,1.9-1.1,2.9c-0.4,0.9-0.8,1.9-1.3,2.8c-0.5,0.9-1,1.8-1.7,2.7
		c-0.3,0.4-0.6,0.8-1,1.3c-0.3,0.4-0.7,0.7-1,1.1c-0.7,0.7-1.5,1.4-2.3,2.1c-1.6,1.3-3.2,2.4-5.1,3.3c0.7-0.8,1.3-1.5,1.9-2.3
		c0.6-0.8,1.2-1.5,1.8-2.3c0.6-0.8,1.1-1.6,1.6-2.3l0.8-1.2c0.2-0.4,0.4-0.8,0.6-1.2c0.8-1.6,1.5-3.4,2.1-5.2
		c0.3-0.9,0.6-1.8,0.8-2.7l0.4-1.4c0.1-0.4,0.2-0.9,0.3-1.3l1.2,2.3c-1-0.4-2-0.8-3-1.3c-1-0.4-2-0.9-3-1.5c-1-0.5-2-1.1-2.9-1.7
		c-0.5-0.3-1-0.7-1.5-1.2c-0.1-0.1-0.3-0.3-0.4-0.4c-0.1-0.1-0.1-0.2-0.2-0.3l-0.1-0.2c0-0.1-0.1-0.1-0.1-0.2
		c-0.1-0.1-0.1-0.3-0.2-0.4c0-0.1-0.1-0.3-0.1-0.3l0-0.1l0-0.3l0-0.1c0-0.2,0-0.4,0.1-0.6c0.3-1.2,0.6-2.2,1-3.3
		c0.4-1,0.8-2,1.2-3.1c0.4-1,0.8-2,1.3-3C275.2,278.1,275.7,277.1,276.2,276.2z"/>
</g>
<g>
	<path class="st4" d="M221.3,334.7c0,0-0.4,8.1,8.2,11.7c8.7,3.5,19,4.2,19,4.2l13,2.5h9.7"/>
	<path d="M221.3,334.7c0.2,1.4,0.7,2.8,1.4,4c0.3,0.6,0.7,1.2,1.1,1.7c0.4,0.5,0.8,1,1.3,1.5c0.2,0.2,0.5,0.5,0.7,0.6
		c0.3,0.2,0.5,0.4,0.8,0.6c0.3,0.2,0.6,0.3,0.8,0.5l0.9,0.4c0.6,0.3,1.2,0.5,1.8,0.7c0.7,0.2,1.4,0.5,2.1,0.6c1.3,0.4,2.7,0.7,4,1.1
		c1.4,0.3,2.7,0.6,4.1,0.9c1.4,0.3,2.8,0.5,4.2,0.7c0.7,0.1,1.4,0.2,2.1,0.3c0.7,0.1,1.4,0.2,2.1,0.2l0.2,0l0.1,0
		c2.2,0.5,4.3,1,6.5,1.5c2.1,0.5,4.3,1.1,6.4,1.7l-0.2,0c1.6,0.1,3.2,0.3,4.8,0.5c0.8,0.1,1.6,0.2,2.4,0.3c0.8,0.1,1.6,0.2,2.4,0.4
		c-0.8,0.1-1.6,0.3-2.4,0.4c-0.8,0.1-1.6,0.2-2.4,0.3c-1.6,0.2-3.2,0.4-4.8,0.5l-0.2,0c-2.2-0.2-4.4-0.5-6.6-0.8
		c-2.2-0.3-4.4-0.6-6.5-1l0.2,0c-0.8,0-1.5-0.1-2.3-0.2c-0.7-0.1-1.5-0.2-2.2-0.3c-1.5-0.2-2.9-0.5-4.4-0.8
		c-0.7-0.1-1.4-0.3-2.2-0.5c-0.7-0.2-1.4-0.4-2.2-0.6c-1.4-0.4-2.8-0.9-4.3-1.5c-0.7-0.3-1.3-0.6-2-0.9c-0.8-0.4-1.4-0.7-2.1-1.2
		l-1-0.7l-0.9-0.8c-0.3-0.3-0.6-0.6-0.8-0.9c-0.3-0.3-0.5-0.6-0.7-0.9c-1-1.3-1.6-2.7-2-4.2C221.2,337.7,221.1,336.2,221.3,334.7z"
		/>
</g>
<g>
	<path class="st4" d="M228.6,355.2c0,0,11,1.1,14,1.8c3,0.7,8,5.7,8,5.7"/>
	<path d="M228.6,355.2c0,0,0.4-0.1,1.1-0.3c0.7-0.2,1.6-0.3,2.8-0.5c2.3-0.3,5.3-0.3,8.4,0.2c0.4,0.1,0.8,0.1,1.2,0.2
		c0.2,0,0.4,0.1,0.6,0.1l0.3,0.1l0.2,0l0.2,0l0,0l0.1,0c0.2,0.1,0.3,0.1,0.5,0.2l0.7,0.3c0.4,0.2,0.7,0.4,1.1,0.7
		c0.7,0.5,1.2,1,1.7,1.4c0.5,0.5,0.9,1,1.3,1.4c1.5,1.9,2.1,3.4,2.1,3.4s-0.4-0.1-1-0.4c-0.6-0.3-1.5-0.7-2.5-1.2
		c-0.5-0.2-1-0.5-1.6-0.8c-0.6-0.3-1.1-0.6-1.7-0.8c-0.3-0.1-0.6-0.2-0.8-0.3c-0.1,0-0.2-0.1-0.3-0.1c-0.1,0-0.3-0.1-0.5-0.1
		c-0.6-0.1-1.3-0.2-1.9-0.3c-1.4-0.2-2.9-0.5-4.3-0.8c-1.4-0.3-2.6-0.7-3.7-1c-1.1-0.4-2-0.7-2.6-1
		C228.9,355.4,228.6,355.2,228.6,355.2z"/>
</g>
<g>
	<path class="st7" d="M174.9,270.7c0,0,3,15.5,10,16.2c7,0.7,15.7-16.2,15.7-16.2H174.9z"/>
	<path d="M174.9,270.7c1.3,3.4,2.7,6.8,4.5,9.7c0.9,1.5,2,2.8,3.2,3.8c0.6,0.5,1.2,0.8,1.8,0.9c0.2,0,0.3,0.1,0.5,0.1l0.2,0l0,0
		c-0.1,0,0.1,0-0.1,0l0,0l0,0l0.1,0l0.2,0l0.3,0c0.1,0,0.1,0,0.2,0c0.1,0,0.1,0,0.2,0l0.2-0.1c0.6-0.2,1.2-0.5,1.9-1
		c0.6-0.4,1.2-1,1.8-1.6c1.2-1.2,2.3-2.5,3.3-3.9c1-1.4,2-2.8,3-4.3l1.4-2.2c0.5-0.8,0.9-1.5,1.3-2.3l1.7,2.8
		c-2.1-0.1-4.3-0.1-6.4-0.2c-2.1-0.1-4.3-0.2-6.4-0.4c-2.1-0.2-4.3-0.3-6.4-0.5C179.1,271.3,177,271,174.9,270.7z M174.9,270.7
		c2.1-0.3,4.3-0.6,6.4-0.8c2.1-0.2,4.3-0.4,6.4-0.5c2.1-0.2,4.3-0.2,6.4-0.4c2.1-0.1,4.3-0.2,6.4-0.2l3-0.1l-1.4,2.8
		c-0.4,0.9-0.9,1.7-1.3,2.5c-0.5,0.8-0.9,1.6-1.4,2.4c-1,1.6-2,3.1-3.2,4.6c-1.2,1.5-2.4,2.9-3.9,4.3c-0.7,0.7-1.5,1.3-2.4,1.8
		c-0.9,0.6-1.9,1-3,1.3l-0.4,0.1l-0.5,0.1l-0.5,0l-0.3,0l-0.5,0l-0.4-0.1c-0.3-0.1-0.6-0.1-0.9-0.3c-1.1-0.4-2.1-1.1-2.8-1.8
		c-1.5-1.5-2.5-3.2-3.2-5c-0.8-1.7-1.3-3.5-1.7-5.3C175.3,274.4,175,272.5,174.9,270.7z"/>
</g>
<g>
	<path class="st7" d="M279.9,273.4l3.3-10.2l18.1,1.2c0,0-3.7,11.6-7,14.4C290.9,281.6,279.9,273.4,279.9,273.4z"/>
	<path d="M279.9,273.4c0.1-0.9,0.3-1.8,0.4-2.7c0.2-0.9,0.3-1.8,0.5-2.6l0.5-2.6l0.6-2.6l0.2-0.8l1.1,0c1.5,0,3,0,4.5,0
		c1.5,0,3,0,4.5,0.1c3,0.1,6,0.2,9.1,0.4l2.5,0.2l-0.8,2.4c-0.4,1.3-0.9,2.6-1.4,3.9c-0.5,1.3-1,2.5-1.6,3.8
		c-0.6,1.3-1.2,2.5-1.9,3.7c-0.4,0.6-0.8,1.2-1.2,1.8c-0.5,0.6-1,1.2-1.7,1.8l-0.1,0.1l0,0l-0.1,0.1l0,0l0,0l-0.1,0.1l-0.2,0.1
		c-0.3,0.1-0.7,0.3-0.9,0.4c-0.5,0.1-1,0.2-1.4,0.2c-0.9,0-1.6-0.2-2.4-0.5c-1.4-0.5-2.6-1.2-3.8-1.9c-1.2-0.7-2.3-1.5-3.3-2.4
		C281.9,275.3,280.8,274.4,279.9,273.4z M279.9,273.4c1.2,0.6,2.4,1.2,3.6,1.8c1.2,0.6,2.4,1.1,3.6,1.6c1.2,0.5,2.4,0.9,3.6,1.1
		c0.6,0.1,1.1,0.2,1.6,0.1c0.2,0,0.4-0.1,0.6-0.1c0.1,0,0,0,0,0l0.2-0.1l0.1-0.1l0,0l0,0c0.1-0.1-0.1,0.1-0.1,0.1l0,0l0,0
		c0.3-0.3,0.6-0.8,1-1.3c0.3-0.5,0.6-1,0.9-1.6c0.3-0.6,0.6-1.1,0.8-1.7l0.8-1.8c0.5-1.2,1-2.4,1.4-3.7c0.4-1.2,0.9-2.5,1.3-3.7
		l1.8,2.6c-3-0.2-6-0.5-9-0.8c-1.5-0.2-3-0.3-4.5-0.5c-1.5-0.2-3-0.4-4.5-0.6l1.3-0.9l-1,2.5l-1.1,2.5c-0.4,0.8-0.7,1.6-1.1,2.4
		C280.7,271.8,280.3,272.6,279.9,273.4z"/>
</g>
<g>
	<path class="st5" d="M109.8,203.1l-84.3-54.6l73.9,3.9l-29.1-71l72.7,26.6l17.4-84.3l59.4,66l66.2-66v96.5L389.6,92l-80.3,97.6
		l48-14.4l-57.5,23.6c0,0-37.9-34.6-100.5-26.9s-79.8,45.7-79.8,45.7l-4.8,2.1L109.8,203.1z"/>
	<path d="M109.8,203.1l-84.6-54.1l-2-1.3l2.4,0.1l74,3.5l-1,1.4L69.2,81.9l-1.1-2.7l2.8,1l72.8,26.4l-2.1,1.2l8.6-42.2l8.6-42.1
		l0.7-3.4l2.3,2.6l59.5,65.9l-2.7-0.1l66.1-66l3.3-3.3l0,4.7l0,48.2l-0.1,48.2l-2.4-1.9l103.5-28.2l5.5-1.5l-3.6,4.4l-80.4,97.4
		l-1.7-2.6l48.1-14.2l1,2.7l-57.6,23.4l-0.7,0.3l-0.6-0.5c-3.1-2.7-6.5-5.1-10-7.4c-3.5-2.3-7.1-4.3-10.9-6.2
		c-3.7-1.9-7.5-3.6-11.4-5.1c-3.9-1.5-7.9-2.9-11.9-4c-4-1.1-8.1-2.1-12.2-2.9c-2-0.4-4.1-0.7-6.2-1c-2.1-0.2-4.1-0.6-6.2-0.7
		l-3.1-0.3c-1-0.1-2.1-0.1-3.1-0.2c-2.1-0.1-4.2-0.2-6.3-0.2c-2.1-0.1-4.2,0.1-6.3,0.1c-2.1,0.1-4.2,0.2-6.3,0.4
		c-2.1,0.2-4.2,0.4-6.2,0.6l-6.2,1c-4.2,0.5-8.2,1.6-12.3,2.5c-2.1,0.4-4,1.1-6,1.7c-2,0.6-4,1.2-6,1.9c-3.9,1.6-7.8,3-11.6,4.9
		l-2.8,1.4c-0.9,0.4-1.8,1-2.7,1.5l-2.7,1.6c-0.9,0.5-1.8,1-2.7,1.7c-1.7,1.2-3.5,2.3-5.2,3.6c-1.6,1.3-3.3,2.6-4.9,4
		c-3.1,2.8-6.2,5.7-8.8,8.9c-2.7,3.2-5.2,6.6-7.1,10.3l0,0.1l-0.1,0l-4.8,2l-0.1,0.1l0-0.1L109.8,203.1z M109.8,203.1l5.1,16.4
		l-0.2-0.1l4.7-2.1l-0.1,0.1c1.9-3.8,4.3-7.3,7-10.5c2.6-3.3,5.7-6.3,8.8-9.1c1.6-1.4,3.3-2.7,4.9-4c1.7-1.3,3.4-2.5,5.2-3.7
		c0.9-0.6,1.8-1.2,2.7-1.7l2.7-1.6c0.9-0.5,1.8-1.1,2.7-1.6l2.8-1.4c3.7-2,7.7-3.5,11.6-5.1c2-0.8,4-1.3,6-2c2-0.6,4-1.4,6.1-1.8
		c4.1-1,8.2-2.1,12.4-2.7l6.2-1c2.1-0.3,4.2-0.5,6.3-0.7c2.1-0.1,4.2-0.3,6.3-0.4c2.1,0,4.2-0.2,6.4-0.2c2.1,0,4.2,0,6.4,0.1
		c1.1,0,2.1,0.1,3.2,0.1l3.2,0.2c2.1,0.1,4.2,0.5,6.3,0.7c2.1,0.3,4.2,0.6,6.3,1c4.2,0.7,8.3,1.7,12.4,2.8c4.1,1.1,8.1,2.5,12.1,4
		c4,1.5,7.9,3.2,11.7,5.1c3.8,1.9,7.5,4,11.1,6.3c3.6,2.3,7.1,4.7,10.4,7.6l-1.3-0.2l57.4-23.8l1,2.7l-48,14.6l-5.1,1.5l3.4-4.1
		l80.1-97.7l1.9,2.9l-103.4,28.4l-2.4,0.7l0-2.5L284.1,72l0-48.2l3.3,1.4l-66.3,65.9l-1.4,1.4l-1.3-1.4l-59.3-66l3-0.8l-8.7,42.1
		l-8.8,42.1l-0.4,1.8l-1.7-0.6L70,82.7l1.7-1.7l28.8,71.1l0.6,1.5l-1.6-0.1l-73.9-4.3l0.4-1.2L109.8,203.1z"/>
</g>
<g>
	<path class="st7" d="M104.9,215.5c0,0,46.7-55.2,102.7-59.4c56-4.2,110,39.7,110,39.7s7.3,8.5,8.7,14.1c1.3,5.7-6,15.8-6,15.8
		l2,7.9l-10.7,5.7l-1.3-18.7c0,0-33.2-13.4-94.6-9.2c-61.4,4.2-95.6,60.1-95.6,60.1s-8.7,7.1-11.9-2.1c-3.3-9.2-4.6-32.5-6.6-35.7
		c-2-3.2-13.3-14.5-13.3-14.5L104.9,215.5z"/>
	<path d="M104.9,215.5c3.2-3.8,6.7-7.5,10.2-11c3.5-3.6,7.2-7,11-10.3c7.6-6.6,15.6-12.7,24-18.2c4.2-2.7,8.6-5.3,13.1-7.6
		c4.5-2.3,9.1-4.4,13.8-6.3c4.7-1.8,9.5-3.4,14.5-4.6c4.9-1.2,9.9-2.1,15-2.6l0.9-0.1l1-0.1l1.9-0.1c1.3-0.1,2.5-0.2,3.8-0.1l3.8,0
		l3.8,0.2c5.1,0.3,10.1,0.8,15.1,1.7c5,0.9,9.9,2,14.8,3.4c4.9,1.4,9.7,3,14.4,4.8c9.4,3.6,18.6,8,27.4,13c4.4,2.5,8.7,5.1,13,7.9
		c4.2,2.8,8.4,5.6,12.4,8.8l0.1,0.1l0.1,0.1c0.5,0.6,0.9,1.1,1.4,1.7c0.5,0.6,0.9,1.1,1.3,1.7c0.9,1.2,1.7,2.3,2.5,3.6
		c0.4,0.6,0.8,1.2,1.2,1.9c0.4,0.6,0.7,1.3,1.1,2c0.3,0.7,0.7,1.4,0.9,2.1c0.1,0.4,0.3,0.7,0.4,1.1l0.2,0.6l0,0.1l0,0.1l0,0l0,0.2
		l0,0.3l0.1,0.5l0,0.3c0,0.1,0,0.2,0,0.4c0,0.5,0,1,0,1.4l-0.2,1.2c-0.1,0.4-0.2,0.8-0.3,1.2c-0.2,0.8-0.4,1.5-0.7,2.2
		c-0.3,0.7-0.6,1.4-0.9,2.1c-0.6,1.4-1.3,2.7-2,3.9c-0.4,0.6-0.8,1.3-1.1,1.9c-0.4,0.6-0.8,1.2-1.2,1.9l0.3-1.6l2,7.9l0.4,1.5
		l-1.4,0.7l-10.7,5.7l-2.7,1.4l-0.2-3l-1.3-18.7l1.2,1.7c-1.9-0.7-4.1-1.4-6.1-2l-3.1-0.9l-3.2-0.8c-2.1-0.5-4.3-1-6.4-1.4
		c-2.2-0.4-4.3-0.9-6.5-1.2c-4.3-0.7-8.7-1.3-13-1.8l-6.6-0.7l-6.6-0.5c-2.2-0.2-4.4-0.2-6.6-0.3c-2.2-0.1-4.4-0.2-6.6-0.2l-6.6-0.1
		c-2.2,0-4.4,0.1-6.6,0.1c-4.4,0-8.8,0.3-13.2,0.5c-1.1,0.1-2.2,0.1-3.3,0.2l-3.3,0.3l-1.7,0.2l-1.6,0.2l-3.2,0.5
		c-2.1,0.4-4.3,0.8-6.4,1.3l-3.2,0.8l-1.6,0.4l-1.6,0.5l-3.1,1l-3.1,1.1c-2.1,0.7-4.1,1.6-6.1,2.4c-4,1.8-7.9,3.6-11.7,5.8
		c-1.9,1-3.8,2.2-5.6,3.4c-1.8,1.2-3.7,2.4-5.4,3.7c-3.6,2.5-7,5.2-10.4,8.1c-3.3,2.9-6.5,5.8-9.6,9c-3.1,3.1-6,6.4-8.8,9.8
		c-2.8,3.4-5.5,6.9-7.8,10.5l-0.1,0.2l-0.1,0.1c-1.3,1-2.7,1.8-4.2,2.3c-1.5,0.5-3.3,0.8-5,0.1c-1.7-0.6-2.9-2.1-3.6-3.5l-0.5-1.1
		c-0.1-0.2-0.2-0.3-0.2-0.6l-0.2-0.5c-0.2-0.7-0.4-1.4-0.6-2.2c-0.4-1.5-0.6-2.9-0.9-4.4c-0.3-1.5-0.5-2.9-0.7-4.4
		c-0.4-2.9-0.8-5.9-1.2-8.8c-0.4-2.9-0.7-5.9-1.1-8.8c-0.2-1.5-0.4-2.9-0.7-4.3c-0.2-0.7-0.3-1.4-0.6-2c0-0.1-0.1-0.2-0.1-0.2
		l-0.2-0.2l-0.3-0.5l-0.7-0.8c-1.8-2.3-3.8-4.5-5.9-6.6c-2-2.2-4.1-4.3-6.1-6.4l-0.3-0.4l0.5-0.1L104.9,215.5z M104.9,215.5
		l-16.6,3.8l0.1-0.5c2.1,2.1,4.2,4.2,6.3,6.3c2.1,2.1,4.1,4.3,6.1,6.5l0.7,0.9l0.3,0.5l0.2,0.2c0.1,0.1,0.1,0.2,0.1,0.3
		c0.4,0.8,0.5,1.5,0.8,2.2c0.3,1.5,0.6,2.9,0.9,4.4c0.5,2.9,0.9,5.9,1.3,8.8c0.4,2.9,0.9,5.8,1.4,8.7c0.3,1.4,0.5,2.9,0.8,4.3
		c0.3,1.4,0.6,2.9,1,4.2c0.2,0.7,0.4,1.4,0.6,2.1l0.2,0.5c0,0.1,0.1,0.3,0.2,0.4l0.4,0.9c0.6,1.2,1.5,2.1,2.6,2.5
		c1.1,0.4,2.4,0.2,3.7-0.2c1.2-0.4,2.5-1.2,3.5-2l-0.2,0.3c2.4-3.8,5.1-7.4,7.8-10.9c2.8-3.5,5.7-6.8,8.8-10.1
		c3.1-3.2,6.3-6.3,9.6-9.3c3.3-3,6.8-5.8,10.4-8.4c1.8-1.3,3.7-2.6,5.5-3.8c1.9-1.2,3.8-2.4,5.7-3.5c3.8-2.3,7.9-4.3,12-6.2
		c2.1-0.9,4.1-1.8,6.2-2.5l3.2-1.2l3.2-1l1.6-0.5l1.6-0.4l3.3-0.9c2.2-0.5,4.4-1,6.6-1.4l3.4-0.5l1.7-0.3l1.7-0.2l3.3-0.3
		c1.2-0.1,2.2-0.1,3.4-0.2c4.4-0.2,8.9-0.6,13.3-0.6c2.2,0,4.4-0.1,6.7-0.1l6.7,0c2.2,0,4.5,0.1,6.7,0.2c2.2,0.1,4.5,0.1,6.7,0.3
		l6.7,0.5l6.7,0.7c4.4,0.5,8.9,1.1,13.3,1.8c2.2,0.3,4.4,0.8,6.6,1.2c2.2,0.5,4.4,0.9,6.6,1.5l3.3,0.8l3.2,0.9
		c2.2,0.7,4.3,1.3,6.5,2.1l1.2,0.4l0.1,1.3l1.3,18.8l-2.9-1.6l10.7-5.6l-1,2.2l-2-7.9l-0.2-0.9l0.5-0.7c0.4-0.5,0.8-1.1,1.1-1.7
		c0.4-0.6,0.7-1.2,1.1-1.7c0.7-1.2,1.3-2.4,1.9-3.6c0.3-0.6,0.5-1.2,0.8-1.8c0.2-0.6,0.4-1.2,0.6-1.8c0.1-0.3,0.2-0.6,0.2-0.9
		l0.1-0.9c0-0.3,0-0.5,0-0.7c0-0.1,0-0.1,0-0.2l0-0.3l-0.1-0.5l0-0.3l0,0l0,0c0-0.2,0,0.2,0,0.2l0,0l0-0.1l0-0.1l-0.1-0.4
		c-0.1-0.3-0.2-0.6-0.3-0.9c-0.2-0.6-0.5-1.2-0.8-1.8c-0.3-0.6-0.6-1.2-1-1.8c-0.3-0.6-0.7-1.2-1.1-1.7c-0.7-1.1-1.5-2.3-2.4-3.4
		c-0.4-0.6-0.8-1.1-1.3-1.6c-0.4-0.5-0.9-1.1-1.3-1.6l0.2,0.2c-3.8-3-7.9-5.9-12.1-8.7c-4.1-2.7-8.4-5.4-12.7-7.8
		c-8.6-4.9-17.6-9.3-26.8-13c-4.6-1.8-9.3-3.5-14.1-4.9c-4.7-1.4-9.6-2.6-14.4-3.5c-4.9-1-9.8-1.6-14.7-1.9l-3.7-0.2l-3.7,0
		c-1.2,0-2.5,0-3.7,0.1l-1.9,0.1l-0.9,0l-0.9,0.1c-4.9,0.4-9.8,1.2-14.7,2.3c-4.8,1.2-9.6,2.6-14.2,4.3c-4.6,1.8-9.2,3.8-13.7,6
		c-4.5,2.2-8.8,4.6-13.1,7.2c-8.5,5.2-16.6,11.1-24.3,17.5c-3.9,3.2-7.6,6.5-11.2,10C111.8,208.2,108.2,211.7,104.9,215.5z"/>
</g>
<path class="st2" d="M169.1,198c-2.1-3.5-3.1-7.1-3.1-10.6c-3.8-1.8-5.1-8.5,0.2-9.5c0.7-0.1,1.4-0.3,2.2-0.4
	c2.7-5.5,7.6-10.3,13.2-13.5c5.1-2.9,10.6-4.9,16.3-6.4c0.1-0.1,0.2-0.2,0.3-0.3c-51.6,9.2-93,58.2-93,58.2L88.5,219
	c0,0,11.3,11.3,13.3,14.5c2,3.2,3.3,26.5,6.6,35.7c3.3,9.2,11.9,2.1,11.9,2.1s26.8-43.8,75.6-56.8
	C185.3,212.4,174.9,207.6,169.1,198z"/>
<g>
	<path class="st8" d="M195.9,163c0,0,29.8-3.6,45.7,1.1c15.9,4.7,58.6,24.7,58.6,26.7s4.7,16,0,18c-4.7,2-43.9-5.3-58.6-5.3
		s-45.4,8-54.7,5.7c-9.3-2.3-15.3-17.3-10-22.8C182.2,180.7,195.9,163,195.9,163z"/>
	<path d="M195.9,163c0,0,1.2-0.2,3.4-0.5c2.2-0.3,5.4-0.7,9.6-1c4.1-0.3,9.2-0.6,14.9-0.5c2.9,0,6,0.1,9.2,0.5
		c3.2,0.3,6.7,0.9,10.2,1.9c6.9,2.1,14,4.9,21.6,8c7.5,3.1,15.4,6.6,23.4,10.4c2,1,4,2,6,3c2,1.1,4,2.1,6.1,3.4
		c0.3,0.2,0.5,0.4,0.9,0.6c0.1,0.1,0.2,0.1,0.3,0.2c0.1,0.1,0.2,0.2,0.3,0.4c0.1,0.1,0.1,0.1,0.2,0.4c0.1,0.2,0.2,0.8,0.2,0.8l0,0.2
		c0,0,0.1,0.3,0.1,0.6l0.2,0.8c0.3,1.1,0.5,2.2,0.8,3.4c0.5,2.3,0.9,4.7,1,7.2c0,1.3,0,2.6-0.3,4c-0.2,0.7-0.5,1.5-1.1,2.3
		c-0.2,0.2-0.3,0.4-0.5,0.5c-0.2,0.2-0.4,0.3-0.6,0.5c-0.2,0.1-0.4,0.3-0.7,0.4c-0.4,0.2-0.2,0.1-0.3,0.1l-0.1,0l-0.2,0.1
		c-0.1,0-0.4,0.1-0.6,0.1l-0.7,0.1l-1,0.1c-0.6,0-1.3,0-1.9,0c-1.2,0-2.4-0.1-3.6-0.2c-4.8-0.4-9.5-0.9-14.2-1.5
		c-9.4-1.2-18.7-2.6-27.9-3.5c-2.3-0.2-4.6-0.4-6.8-0.5c-0.6,0-1.1,0-1.7-0.1l-0.4,0c0,0-0.3,0-0.4,0l-0.9,0l-1.7,0l-1.6,0.1
		c-4.4,0.3-8.9,0.9-13.2,1.6c-8.7,1.3-17.2,2.7-25.4,3.5c-1,0.1-2,0.2-3.1,0.2c-1,0.1-2,0.1-3,0.1c-2,0-4.1-0.1-6.2-0.6
		c-0.2-0.1-0.4-0.1-0.7-0.2l-0.8-0.3c-0.5-0.2-1-0.4-1.4-0.7c-0.9-0.5-1.7-1.1-2.4-1.8c-1.5-1.3-2.7-2.8-3.7-4.4
		c-2-3.2-3.2-6.6-3.3-10.1c0-1.7,0.2-3.5,0.9-5c0.4-0.8,0.9-1.5,1.4-2.1c0.5-0.5,1-1,1.5-1.6c3.9-4.2,7.1-8.1,9.8-11.2
		C192.8,166.6,195.9,163,195.9,163z M195.9,163c0,0-0.7,1-2,2.7c-1.3,1.8-3.2,4.4-5.7,7.7c-2.5,3.3-5.5,7.3-9.3,11.7
		c-0.5,0.6-1,1.1-1.5,1.7c-0.4,0.5-0.8,1-1,1.7c-0.5,1.3-0.7,2.7-0.5,4.2c0.2,3,1.4,6.1,3.3,8.9c1.9,2.7,4.5,5.2,7.9,6.1
		c1.6,0.3,3.5,0.4,5.4,0.3c1,0,1.9-0.1,2.9-0.2c1-0.1,2-0.2,3-0.3c4-0.5,8.1-1.1,12.3-1.9c4.2-0.7,8.5-1.4,12.9-2.2
		c4.4-0.7,8.8-1.4,13.5-1.8l1.8-0.1l1.7-0.1l0.9,0c0.2,0,0.2,0,0.5,0l0.4,0c0.6,0,1.2,0,1.8,0c2.4,0.1,4.7,0.3,7,0.5
		c9.3,0.9,18.7,2.2,28,3.3c4.7,0.6,9.3,1.2,14,1.6c1.1,0.1,2.3,0.2,3.4,0.2c0.6,0,1.1,0,1.6,0l0.8,0c0.1,0,0.1,0,0.2,0
		c0.1,0,0.1,0,0.3,0l0.2-0.1l0.1,0c-0.1,0,0.3-0.1-0.1,0c0,0,0.1,0,0.1,0c0,0,0.1-0.1,0.1-0.1c0,0,0.1-0.1,0.1-0.1
		c0.1-0.2,0.3-0.5,0.4-0.9c0.2-0.8,0.3-1.8,0.2-2.9c-0.1-2.1-0.5-4.3-0.9-6.5c-0.2-1.1-0.5-2.2-0.7-3.4l-0.2-0.9
		c-0.1-0.3-0.1-0.6-0.2-1.1l0-0.2c0-0.1,0,0.4,0.1,0.6c0.1,0.2,0.1,0.1,0.1,0.2c0.1,0.1,0.1,0.1,0.1,0.1c0,0,0,0-0.1,0
		c-0.1-0.1-0.3-0.3-0.5-0.4c-1.7-1.2-3.7-2.3-5.7-3.3c-2-1-3.9-2.1-5.9-3c-7.9-3.9-15.6-7.6-23-10.8c-3.7-1.6-7.3-3.2-10.8-4.6
		c-3.5-1.4-6.9-2.8-10.2-3.9c-3.3-1.1-6.5-1.8-9.7-2.2c-3.2-0.5-6.2-0.7-9-0.9c-5.7-0.3-10.7-0.3-14.9-0.2c-4.1,0.1-7.4,0.3-9.6,0.4
		C197,162.9,195.9,163,195.9,163z"/>
</g>
<path class="st2" d="M224.2,177.8c1.9-6,7.7-11.2,13-14.7c-16.5-3-41.3-0.1-41.3-0.1s-13.7,17.8-19,23.3c-5.3,5.5,0.7,20.5,10,22.8
	c8.8,2.2,36.6-4.8,52.1-5.6C230.1,197.5,220.7,188.5,224.2,177.8z"/>
<g>
	<path class="st7" d="M113.4,378.5c0,0,9.5,23.6,24.8,32.3s36.6,12.7,36.6,12.7l10,18.7l22.7-17.3l-10.1-19.4l1.1-6.6l27.3,26.7
		c0,0-10.8,14-10.2,16.7c0.6,2.7,5.7,22,5.7,22s0.9,26-37.1,15.3c-38-10.7-101.3-43.3-101.3-56c0-12.7-5.3-36.7-5.3-36.7l14-3.5
		c0,0,18-29.4,26-24.3c8,5.1,12.8,7.6,12.8,7.6L113.4,378.5z"/>
	<g>
		<path d="M113.4,378.5c0.7,1.5,1.4,3,2.2,4.5c0.8,1.5,1.6,3,2.4,4.4c0.8,1.5,1.7,2.9,2.6,4.3l1.4,2.1l1.4,2c0.5,0.7,1,1.3,1.5,2
			c0.5,0.6,1,1.3,1.6,1.9l1.6,1.9c0.6,0.6,1.2,1.2,1.7,1.8c0.6,0.6,1.2,1.2,1.8,1.7c0.6,0.5,1.2,1.1,1.9,1.6l2,1.5
			c0.7,0.5,1.4,0.9,2.1,1.3l1,0.6l1.1,0.6c0.7,0.4,1.5,0.8,2.2,1.1c1.5,0.7,3,1.4,4.5,2c1.5,0.7,3.1,1.2,4.6,1.8
			c1.6,0.6,3.1,1.1,4.7,1.6c1.6,0.5,3.2,1,4.8,1.5c1.6,0.5,3.2,0.9,4.8,1.3c3.2,0.8,6.5,1.6,9.7,2.2l0.5,0.1l0.3,0.5l10.2,18.6
			l-1.9-0.4l22.5-17.5l-0.4,1.9L196,406.1l-0.3-0.5l0.1-0.6l1.1-6.6l0.5-3.2l2.4,2.3l27.4,26.6l1.2,1.2l-1,1.3
			c-2.1,2.8-4.2,5.6-6.1,8.5c-1,1.4-1.9,2.9-2.7,4.4c-0.4,0.7-0.8,1.5-1,2.1c0,0.1,0,0.1-0.1,0.2c0,0.1,0,0.1,0,0.1c0,0,0,0.1,0-0.1
			c0-0.1,0,0,0-0.1l0,0.2l0.3,1.3l5.3,20.5l0.1,0.2l0,0.2c0,1.3-0.1,2.4-0.3,3.6c-0.2,1.1-0.5,2.3-0.9,3.4c-0.8,2.2-2,4.3-3.5,6.1
			c-1.6,1.8-3.5,3.2-5.6,4.3c-2.1,1.1-4.3,1.7-6.5,2.2c-4.5,0.7-8.9,0.6-13.2-0.1c-2.2-0.3-4.3-0.8-6.4-1.3l-3.1-0.8l-3.1-0.9
			c-8.2-2.5-16.1-5.4-24-8.6c-7.9-3.2-15.6-6.7-23.2-10.4c-7.6-3.7-15.1-7.6-22.5-11.9c-3.7-2.1-7.3-4.3-10.8-6.7
			c-3.5-2.4-7-4.9-10.3-7.6c-1.6-1.4-3.2-2.9-4.7-4.5c-0.7-0.8-1.4-1.7-2.1-2.7c-0.6-1-1.2-2.1-1.5-3.4c-0.1-0.3-0.1-0.7-0.1-1
			l0-0.8l0-1.6l-0.2-3.1c-0.2-2.1-0.4-4.2-0.6-6.2c-1-8.3-2.5-16.6-4.2-24.8l-0.2-1.1l1.1-0.3l14-3.4l-0.6,0.5
			c2.4-3.7,4.9-7.3,7.6-10.8c1.4-1.7,2.7-3.4,4.2-5.1c1.5-1.6,3-3.2,4.7-4.7c0.8-0.7,1.7-1.4,2.6-2.1c0.9-0.6,1.9-1.2,3-1.7
			c1.1-0.4,2.3-0.7,3.5-0.5c0.6,0.1,1.2,0.4,1.7,0.7l1.4,0.9c3.7,2.4,7.4,4.7,11.2,6.7l0.5,0.3l-0.5,0.3L113.4,378.5z M113.4,378.5
			l16.8-12.3l0,0.6c-3.9-2-7.7-4.2-11.4-6.5l-1.4-0.9c-0.5-0.2-0.8-0.4-1.3-0.5c-0.9-0.1-1.9,0.1-2.8,0.5c-0.9,0.4-1.8,1-2.7,1.6
			c-0.8,0.6-1.7,1.3-2.4,2.1c-1.6,1.5-3,3.1-4.4,4.7c-1.4,1.7-2.7,3.4-4,5.1c-1.3,1.7-2.5,3.5-3.7,5.3c-1.2,1.8-2.4,3.6-3.5,5.5
			l-0.2,0.4l-0.4,0.1l-14,3.6l0.9-1.4c1.8,8.3,3.5,16.6,4.6,25c0.3,2.1,0.5,4.2,0.7,6.3c0.1,1.1,0.2,2.2,0.2,3.2l0.1,1.6l0,0.8
			c0,0.2,0,0.3,0.1,0.5c0.2,0.7,0.6,1.6,1.1,2.3c0.5,0.8,1.1,1.6,1.8,2.3c1.4,1.5,2.9,2.8,4.5,4.1c3.2,2.6,6.6,5,10.1,7.2
			c3.5,2.3,7.1,4.4,10.7,6.5c7.3,4.1,14.8,8,22.3,11.6c7.6,3.6,15.3,7,23,10.1c7.8,3.1,15.7,6,23.7,8.4l3,0.9l3,0.8
			c2,0.5,4,0.9,6,1.2c4,0.6,8.1,0.7,12,0.1c3.8-0.7,7.4-2.3,9.8-5.1c1.2-1.4,2.2-3,2.8-4.8c0.3-0.9,0.6-1.8,0.7-2.7
			c0.2-0.9,0.3-1.9,0.3-2.7l0.1,0.4l-5.3-20.6l-0.3-1.3l0-0.2c0-0.2,0-0.3-0.1-0.5c0-0.3,0-0.5,0-0.7c0-0.2,0.1-0.4,0.1-0.5
			c0-0.2,0.1-0.3,0.1-0.4c0.4-1.1,0.8-1.9,1.2-2.7c0.9-1.6,1.9-3.2,2.9-4.7c2-3,4.1-5.8,6.3-8.7l0.2,2.5L197.4,400l2.9-0.9l-1.1,6.5
			l-0.2-1.1l9.9,19.5l0.6,1.1l-1,0.8l-22.8,17.1l-1.2,0.9l-0.7-1.3l-9.9-18.7l0.8,0.6c-3.3-0.7-6.6-1.5-9.8-2.4
			c-1.6-0.5-3.2-0.9-4.8-1.4c-1.6-0.5-3.2-1-4.8-1.6c-1.6-0.6-3.2-1.2-4.7-1.8c-1.6-0.6-3.1-1.3-4.7-2c-1.5-0.7-3.1-1.4-4.6-2.2
			c-0.8-0.4-1.5-0.8-2.2-1.2l-1.1-0.6l-1.1-0.7c-0.7-0.5-1.4-0.9-2.1-1.4l-2-1.6c-0.7-0.5-1.2-1.1-1.9-1.7c-0.6-0.6-1.2-1.2-1.8-1.8
			c-0.6-0.6-1.2-1.2-1.7-1.9l-1.6-2c-0.5-0.6-1-1.3-1.5-2c-0.5-0.7-1-1.3-1.5-2.1l-1.4-2.1l-1.3-2.1c-0.9-1.4-1.7-2.9-2.5-4.4
			c-0.8-1.5-1.5-3-2.2-4.5C114.7,381.5,114,380,113.4,378.5z"/>
	</g>
</g>
<path class="st2" d="M146.2,439.7c7.6-8.1,17.9-12.9,28.9-15.9l-0.3-0.5c0,0-21.3-4-36.6-12.7c-15.3-8.7-24.8-32.3-24.8-32.3l17-12
	c0,0-4.8-2.4-12.8-7.6c-8-5.1-26,24.3-26,24.3l-14,3.5c0,0,5.3,24,5.3,36.7c0,8.1,25.7,24.3,54.2,37.7
	C137.6,453.5,140.3,446.1,146.2,439.7z"/>
<path class="st2" d="M218.3,417.9l-19.6-19.2l-1.1,6.6l7.1,13.7C209.1,418.5,213.7,418.2,218.3,417.9z"/>
<g>
	<path class="st5" d="M118.2,272.1l8.1,15.9c0,0,5.6-2.7,13.9,3.7c8.3,6.4,11.5,9.9,11.5,9.9s1.8-15.8-1.5-22.1
		c-3.3-6.4-6.9-33.4-6.9-33.4l-10.4,8L118.2,272.1z"/>
	<path d="M118.2,272.1c1.5,2.6,3.1,5.1,4.6,7.7l4.4,7.8l-1.3-0.4c0.8-0.4,1.4-0.5,2.1-0.6c0.7-0.1,1.4-0.2,2.1-0.2
		c0.7,0,1.4,0.1,2,0.2c0.7,0.1,1.3,0.2,2,0.4l1,0.3l0.9,0.4c0.6,0.2,1.2,0.6,1.8,0.8c0.6,0.3,1.2,0.7,1.7,1l1.6,1.1
		c2,1.5,4.1,3,6,4.6c1,0.8,2,1.6,2.9,2.5l1.4,1.3c0.5,0.4,0.9,0.9,1.4,1.4l-3.1,1c0.1-1.1,0.2-2.3,0.2-3.4c0.1-1.2,0.1-2.3,0.1-3.5
		c0-1.2,0-2.3,0-3.4c0-1.1-0.1-2.3-0.2-3.4l-0.2-1.7l-0.3-1.6l-0.3-1.6c-0.2-0.5-0.3-1-0.5-1.5l-0.7-1.5l-0.4-0.8
		c-0.1-0.3-0.2-0.6-0.3-0.9c-0.5-1.3-0.7-2.4-1.1-3.6c-0.6-2.3-1.1-4.7-1.6-7c-0.5-2.3-0.9-4.7-1.2-7c-0.4-2.3-0.7-4.7-1-7
		c-0.3-2.3-0.6-4.7-0.9-7l2.5,1.1l-5.3,3.9c-1.8,1.3-3.6,2.5-5.3,3.8l0.2-0.2l-3.8,4.4l-3.9,4.3c-1.3,1.4-2.6,2.9-3.9,4.3
		C120.9,269.2,119.6,270.7,118.2,272.1z M118.2,272.1c1.1-1.6,2.2-3.2,3.4-4.7c1.1-1.6,2.3-3.1,3.4-4.7l3.5-4.7l3.5-4.6l0.1-0.1
		l0.1-0.1c1.7-1.4,3.4-2.8,5.1-4.2l5.1-4.1l2.1-1.7l0.5,2.7l1.2,6.9c0.4,2.3,0.8,4.6,1.2,6.9l0.7,3.4c0.2,1.1,0.4,2.3,0.7,3.4
		c0.5,2.3,1,4.5,1.6,6.8c0.3,1.1,0.6,2.2,1,3.2c0.1,0.2,0.2,0.5,0.3,0.7l0.4,0.8l0.7,1.7c0.3,0.6,0.4,1.3,0.6,1.9l0.4,1.9l0.3,1.9
		l0.2,1.8c0.1,1.2,0.1,2.4,0.1,3.7c0,1.2,0,2.4,0,3.6c0,1.2-0.1,2.4-0.2,3.6c-0.1,1.2-0.2,2.4-0.4,3.6l-0.5,3.9l-2.7-2.9
		c-0.3-0.4-0.8-0.8-1.2-1.3l-1.3-1.3c-0.9-0.8-1.8-1.7-2.8-2.5c-1.9-1.7-3.7-3.2-5.7-4.8l-1.4-1.1c-0.5-0.3-1-0.7-1.5-1
		c-0.5-0.3-1-0.6-1.5-0.8l-0.8-0.4l-0.8-0.3c-0.5-0.2-1.1-0.4-1.7-0.5c-0.6-0.1-1.1-0.2-1.7-0.3c-0.6,0-1.1-0.1-1.7,0
		c-0.5,0-1.2,0.2-1.5,0.3l-1,0.3l-0.3-0.8l-3.7-8.2C120.6,277.6,119.4,274.8,118.2,272.1z"/>
</g>
<path class="st2" d="M118.2,272.2l8.1,15.9c0,0,5.6-2.7,13.9,3.7c8.3,6.4,11.5,9.9,11.5,9.9s1.8-15.8-1.5-22.1
	c-3.3-6.4-6.9-33.4-6.9-33.4l-10.4,8L118.2,272.2z"/>
<path class="st2" d="M187.7,219.6c0,0,68.9-2.1,87.2,0c18.3,2.1,35.3,12.8,35.3,12.8v-12c0,0-37.7-11.7-61.7-9.9
	c-24,1.9-31.4,0.6-31.4,0.6l-30.9,6.5L187.7,219.6z"/>
<path class="st2" d="M24.2,148.7l85.6,54.4c0,0-7.3-15-18.6-27.2C79.9,163.7,24.2,148.7,24.2,148.7z"/>
<polygon class="st2" points="143.1,108.1 161.9,90.7 160.5,23.8 "/>
<polygon class="st2" points="219.2,91.7 219.2,113.7 231.2,91.7 284.7,25.2 "/>
<polygon class="st2" points="284.7,121.7 280.8,143.7 387.6,94.3 "/>
<polygon class="st2" points="99.5,152.4 109.8,175.9 106.2,152.4 71.9,82 "/>
<polygon points="181.8,270.7 191.9,271.3 186.3,282.2 "/>
<polyline points="285.6,263.4 294.4,264 288.8,274.6 285.1,263.4 "/>
<ellipse class="st6" cx="191.9" cy="274" rx="4.6" ry="2.5"/>
<ellipse class="st6" cx="294.4" cy="267.7" rx="4.6" ry="2.5"/>
<polygon class="st2" points="280.8,263.2 277.4,251.2 301.2,249 311.6,252.8 310.2,265 "/>
<g>
	<circle class="st9" cx="249.1" cy="190.3" r="1.4"/>
	<path class="st9" d="M245.5,168.5c-0.3-0.2-0.6-0.4-0.9-0.7c-0.1-0.1-0.2-0.2-0.2-0.2c-8.8,0.7-15.8,7.4-15.8,15.6
		c0,8.6,7.7,15.6,17.2,15.6c0,0-8-7.5-7-13.1c1-5.6,12.1-3.8,12.6-8.5C251.8,173.9,247.6,170.1,245.5,168.5z M242.9,176.4
		c-0.8,0-1.5-0.7-1.5-1.5c0-0.8,0.7-1.5,1.5-1.5s1.5,0.7,1.5,1.5C244.4,175.7,243.8,176.4,242.9,176.4z"/>
</g>
<g>
	<path d="M24.2,409.7c0,0,1.3,0.1,3.6,0.6c1.1,0.3,2.5,0.6,4,1c1.5,0.5,3.3,1,5.1,1.8c1.9,0.7,3.9,1.6,5.9,2.6
		c0.5,0.3,1,0.5,1.6,0.8c0.5,0.3,1,0.6,1.6,0.9c1.1,0.6,2.1,1.2,3.2,1.9c1.1,0.7,2.1,1.4,3.2,2.2c1.1,0.7,2.1,1.6,3.1,2.4
		c1,0.8,2,1.7,3,2.6c1,0.9,1.9,1.8,2.8,2.8c1.8,1.9,3.7,3.8,5.4,5.6c1.8,1.9,3.5,3.8,5.1,5.6c1.7,1.8,3.2,3.6,4.7,5.3
		c1.5,1.7,2.8,3.3,4.1,4.9c2.5,3,4.5,5.7,5.9,7.5c1.4,1.8,2.1,2.9,2.1,2.9s-1-0.9-2.7-2.4c-1.7-1.5-4.1-3.8-6.9-6.5
		c-1.4-1.4-3-2.8-4.6-4.4c-1.6-1.6-3.3-3.2-5-4.9c-1.7-1.7-3.5-3.5-5.3-5.3c-1.8-1.8-3.6-3.7-5.5-5.5c-0.9-0.9-1.8-1.9-2.7-2.7
		c-0.9-0.9-1.8-1.8-2.8-2.6c-0.9-0.8-1.9-1.6-2.8-2.4c-1-0.8-1.9-1.5-2.9-2.2c-0.5-0.4-1-0.7-1.4-1c-0.5-0.3-1-0.7-1.5-1
		c-0.5-0.3-1-0.6-1.4-1c-0.5-0.3-1-0.6-1.4-0.9c-0.9-0.6-1.9-1.1-2.8-1.6c-0.9-0.5-1.8-1-2.6-1.5c-1.7-0.9-3.3-1.7-4.7-2.4
		c-1.4-0.7-2.7-1.3-3.7-1.7c-1.1-0.4-1.9-0.8-2.5-1C24.5,409.8,24.2,409.7,24.2,409.7z"/>
</g>
</svg>
