<?xml version="1.0" standalone="no"?>
<!DOCTYPE svg PUBLIC "-//W3C//DTD SVG 20010904//EN"
 "http://www.w3.org/TR/2001/REC-SVG-20010904/DTD/svg10.dtd">
<svg version="1.0" xmlns="http://www.w3.org/2000/svg"
 width="1280.000000pt" height="720.000000pt" viewBox="0 0 1280.000000 720.000000"
 preserveAspectRatio="xMidYMid meet">
<metadata>
Created by potrace 1.14, written by Peter Selinger 2001-2017
</metadata>
<g transform="translate(0.000000,720.000000) scale(0.100000,-0.100000)"
fill="#000000" stroke="none">
<path d="M80 7171 c27 -39 89 -86 122 -95 20 -5 38 1 72 24 44 30 86 74 86 91
0 5 -68 9 -151 9 l-150 0 21 -29z"/>
<path d="M565 7168 c-10 -18 -24 -37 -32 -41 -7 -4 -13 -15 -13 -23 0 -8 -17
-47 -37 -87 l-38 -72 2 -150 c3 -162 -7 -221 -36 -211 -9 3 -42 14 -74 26 -80
29 -102 20 -228 -93 -95 -85 -104 -96 -107 -132 l-3 -40 68 71 c97 102 177
164 213 164 16 0 50 -10 74 -22 44 -21 45 -22 50 -82 3 -34 8 -185 10 -336 3
-151 10 -329 15 -395 20 -235 20 -245 -2 -245 -17 0 -19 5 -13 33 3 17 2 27
-2 20 -4 -7 -19 37 -36 105 -16 64 -33 130 -38 146 -7 24 -3 41 22 90 20 41
28 69 23 84 -5 21 -10 17 -42 -40 -103 -179 -220 -474 -298 -748 -32 -110 -36
-141 -39 -255 l-2 -130 14 85 c8 47 17 100 20 118 4 17 10 32 15 32 5 0 6 7 2
16 -3 9 -1 19 5 23 6 4 13 22 15 41 6 48 26 119 43 152 8 15 14 30 13 35 -1 4
4 22 11 38 8 17 15 35 15 40 1 6 7 24 14 40 7 17 13 39 14 50 1 11 12 36 24
56 12 19 20 44 17 55 -3 11 15 61 42 119 53 115 49 117 89 -45 12 -52 41 -165
63 -250 22 -85 48 -207 57 -270 23 -166 111 -585 152 -723 67 -228 23 -134
-107 228 -68 188 -125 388 -163 570 -14 66 -33 157 -43 202 -10 46 -19 81 -22
79 -10 -11 40 -273 110 -561 38 -160 79 -281 204 -601 54 -137 108 -278 121
-314 37 -98 95 -231 100 -227 4 4 -4 24 -33 94 -8 17 -14 38 -14 47 0 8 -10
39 -21 68 -12 29 -21 66 -20 81 1 16 -14 86 -33 155 -69 247 -170 681 -157
665 4 -4 49 -172 100 -373 51 -201 96 -369 101 -374 5 -5 7 -1 5 10 -9 39
-171 672 -225 879 -41 160 -76 518 -85 895 -3 113 -8 221 -10 240 -4 33 -3 34
10 16 19 -25 19 -9 0 24 -10 18 -14 59 -15 141 0 98 3 124 21 165 12 27 25 51
28 54 6 5 14 60 15 109 1 13 14 37 30 54 l30 29 25 -28 c98 -116 285 -324 289
-324 3 0 -6 12 -19 28 -14 15 -76 86 -139 157 -63 72 -122 140 -133 151 -18
22 -18 23 15 73 18 28 38 49 44 47 7 -3 10 3 8 12 -3 9 8 36 24 59 l28 42 119
-70 c66 -39 129 -75 140 -80 49 -24 -22 23 -125 82 l-107 61 7 37 c4 21 28 70
53 109 l47 72 -123 0 -123 0 -19 -32z"/>
<path d="M3311 7196 c13 -14 78 -54 107 -67 18 -8 35 -21 37 -29 3 -8 37 -30
75 -48 58 -28 70 -38 70 -58 0 -13 -4 -24 -10 -24 -5 0 -10 -11 -10 -25 0 -13
-8 -29 -17 -34 -10 -5 -32 -50 -51 -103 -18 -51 -38 -106 -43 -123 -6 -16 -12
-37 -13 -45 -1 -8 -7 -25 -14 -36 -6 -12 -16 -43 -22 -70 -13 -59 -26 -75 -54
-69 -11 2 -79 7 -151 10 -109 4 -134 9 -157 25 -16 12 -29 16 -29 10 -3 -22
-5 -26 -23 -50 -12 -16 -20 -21 -23 -13 -3 8 -14 11 -29 7 -15 -4 -24 -2 -24
6 0 7 -7 10 -15 6 -11 -4 -15 1 -15 17 0 17 2 19 10 7 10 -16 11 -15 28 23 10
23 10 27 0 20 -17 -10 -59 -4 -77 10 -12 10 -14 9 -8 -5 3 -10 2 -18 -3 -18
-19 0 -10 41 10 48 19 7 19 8 -5 34 -14 15 -21 30 -15 33 6 3 10 2 10 -4 0 -7
8 -7 27 0 14 5 39 7 55 4 24 -6 27 -4 21 12 -3 10 -10 24 -16 30 -5 7 -7 19
-4 27 4 9 -3 16 -16 20 -18 5 -20 8 -7 16 11 7 4 10 -27 10 -29 0 -45 -5 -51
-17 -11 -19 -44 -11 -37 9 4 9 -3 14 -16 15 -15 1 -19 -2 -15 -13 4 -10 1 -14
-6 -11 -7 2 -12 13 -12 25 1 11 -5 23 -13 26 -10 4 -13 -1 -11 -17 2 -17 -1
-21 -17 -19 -35 5 -46 12 -40 22 4 6 -6 10 -24 10 -17 0 -31 -5 -31 -11 0 -6
9 -8 23 -4 16 6 19 4 11 -4 -13 -15 -39 -16 -78 -6 -26 7 -28 6 -18 -11 8 -14
6 -21 -6 -32 -15 -11 -14 -12 6 -2 12 6 22 16 22 23 0 8 3 8 9 -2 5 -7 13 -11
19 -7 15 9 42 -4 42 -20 0 -8 5 -14 11 -14 5 0 7 5 4 10 -7 11 9 11 45 0 16
-5 19 -8 8 -9 -9 -1 -19 -4 -21 -8 -3 -5 20 -6 50 -5 41 3 54 1 48 -8 -6 -9 0
-10 23 -5 16 3 33 2 36 -3 4 -6 -3 -8 -16 -5 -17 3 -19 2 -9 -5 9 -7 10 -12 2
-16 -6 -4 -11 -3 -11 2 0 5 -8 12 -17 15 -10 2 -27 8 -37 13 -15 6 -18 4 -14
-8 5 -11 0 -14 -20 -11 -15 2 -21 0 -14 -3 20 -9 14 -18 -28 -44 -44 -27 -50
-40 -20 -40 11 0 20 -4 20 -10 0 -16 -44 -34 -77 -31 -27 2 -32 0 -27 -14 5
-13 8 -14 15 -3 7 10 9 10 9 -2 0 -13 1 -13 10 0 5 8 10 10 10 4 0 -6 10 -16
23 -23 l22 -11 -22 6 c-14 3 -23 1 -23 -6 0 -6 -13 -16 -30 -21 -17 -6 -30
-18 -30 -27 0 -14 -2 -14 -9 -3 -7 10 -10 10 -16 1 -4 -7 -1 -16 6 -22 10 -6
7 -7 -10 -3 -15 5 -21 4 -17 -4 5 -7 -2 -7 -24 0 -17 6 -27 16 -23 22 3 5 1 7
-4 4 -10 -7 -83 18 -93 32 -3 3 -18 7 -35 8 l-30 1 27 -12 c24 -10 25 -13 10
-22 -14 -10 -9 -15 38 -37 30 -14 47 -26 37 -26 -9 -1 -25 -5 -35 -11 -9 -5
-44 -18 -77 -29 -33 -11 -105 -36 -159 -55 -120 -44 -150 -50 -179 -36 -21 11
-21 10 -3 -4 11 -9 18 -17 15 -19 -8 -7 -193 -76 -196 -74 -1 2 13 40 32 85
21 50 30 84 24 88 -6 4 -4 13 7 25 9 10 14 27 11 39 -3 11 -1 18 4 15 11 -7 4
61 -10 98 -6 15 -14 27 -18 26 -19 -3 -27 2 -15 9 9 6 7 14 -8 30 -25 26 -36
28 -44 6 -5 -14 -4 -15 8 -5 11 9 16 9 22 -1 9 -13 10 -18 12 -51 1 -10 6 -16
11 -12 21 13 38 -71 18 -91 -3 -4 -2 -16 4 -28 9 -19 9 -19 -4 -4 -8 10 -17
16 -21 13 -3 -3 -2 0 2 6 5 5 7 21 4 35 -3 17 -11 24 -27 24 -19 0 -23 -5 -20
-25 2 -19 -2 -25 -16 -25 -17 0 -17 3 -7 20 15 23 7 33 -17 23 -18 -6 -18 -7
1 -14 18 -7 18 -8 -2 -8 -12 -1 -27 5 -33 13 -10 12 -8 15 8 18 15 2 18 7 12
17 -6 9 -15 11 -27 6 -11 -5 -26 -9 -36 -9 -9 -1 -20 -4 -24 -8 -12 -12 -26
-9 -18 4 4 6 3 8 -4 4 -6 -3 -22 -2 -37 4 -18 7 -24 7 -20 -1 4 -6 -3 -21 -16
-35 -13 -14 -17 -24 -10 -24 7 0 11 -6 8 -14 -7 -19 85 -200 120 -234 7 -7 13
-17 13 -22 0 -5 2 -15 5 -22 4 -9 -4 -19 -21 -26 -24 -12 -32 -8 -132 76 -136
112 -194 155 -168 124 20 -23 9 -31 -13 -9 -11 10 -11 8 -1 -8 7 -11 63 -62
126 -113 63 -52 114 -97 114 -100 0 -4 -59 -37 -132 -74 l-131 -67 -31 36
c-17 20 -46 52 -63 72 -18 19 -33 42 -33 50 0 8 -3 11 -7 8 -3 -4 -15 1 -27
10 -26 23 25 -48 74 -102 60 -67 73 -85 63 -85 -5 0 -40 38 -79 85 -62 76 -84
97 -84 79 0 -3 31 -42 70 -87 38 -45 70 -84 70 -87 0 -3 -21 -16 -47 -30 -27
-13 -51 -29 -55 -35 -13 -18 -9 -35 10 -35 9 -1 51 -41 92 -91 41 -49 97 -115
123 -147 40 -48 190 -242 274 -357 116 -157 266 -394 259 -411 -3 -8 3 -16 17
-19 15 -4 33 -29 59 -83 20 -42 39 -88 42 -102 5 -23 -13 -146 -70 -485 -72
-427 -232 -1038 -290 -1104 -6 -7 -328 232 -444 329 -63 53 -162 132 -218 175
-57 43 -106 85 -109 94 -3 9 -16 41 -28 71 -13 30 -29 70 -35 88 -7 18 -14 31
-16 29 -3 -2 12 -48 31 -102 20 -54 34 -99 32 -101 -2 -2 -43 10 -92 26 -49
17 -93 30 -99 30 -6 0 50 -30 125 -67 162 -82 224 -125 394 -278 72 -64 144
-127 162 -139 100 -67 280 -202 292 -217 7 -11 20 -19 28 -19 8 0 54 -29 102
-63 118 -87 410 -284 501 -339 203 -122 791 -423 953 -488 37 -16 53 -26 45
-32 -8 -5 1 -8 24 -8 23 0 146 -44 337 -121 166 -67 300 -123 298 -125 -2 -2
-33 1 -70 7 -36 6 -77 9 -89 7 -13 -2 20 -9 72 -16 99 -14 199 -42 263 -74 20
-10 37 -20 37 -21 0 -2 -12 -32 -26 -67 -63 -157 -33 -321 84 -445 15 -16 28
-39 29 -50 1 -11 3 -25 5 -31 2 -6 -31 -60 -73 -120 -102 -145 -209 -339 -279
-502 -22 -51 -22 -53 -5 -72 10 -11 26 -20 37 -20 14 0 17 5 12 24 -3 14 -1
33 5 43 8 14 9 11 4 -16 -10 -54 11 -30 45 52 47 112 108 240 125 262 9 11
-18 -63 -59 -164 -40 -102 -74 -186 -74 -188 0 -2 -7 -3 -15 -3 -37 0 -1 -45
45 -56 19 -5 40 -9 45 -9 6 -1 20 -7 33 -14 16 -8 41 -10 76 -6 l54 7 22 74
c29 100 65 298 85 471 15 131 15 144 1 159 -15 14 -14 17 8 35 13 10 31 19 39
19 9 0 17 5 19 12 3 7 29 13 69 13 73 2 180 43 240 93 43 36 95 131 110 200 6
29 16 52 23 52 17 0 160 -74 204 -106 20 -15 64 -55 97 -88 49 -49 69 -80 103
-158 46 -104 86 -271 97 -405 11 -118 -19 -408 -59 -575 l-13 -58 27 0 c33 0
34 3 51 150 16 142 6 663 -15 775 -9 49 -31 112 -56 163 -23 46 -40 85 -38 88
3 2 40 20 84 38 l79 35 21 -67 c48 -158 192 -410 328 -576 l55 -67 -62 -94
c-205 -313 -284 -440 -275 -444 15 -5 24 7 176 244 78 121 151 231 162 245
l20 25 22 -30 c32 -42 120 -136 125 -131 2 2 1 22 -3 45 -5 34 -18 53 -71 104
-173 166 -375 487 -443 702 -34 107 -38 277 -11 430 36 203 97 430 181 675
105 305 167 508 229 755 136 542 215 1054 228 1465 6 185 3 222 -27 455 -11
91 -49 257 -61 271 -12 14 -20 8 204 144 76 46 143 93 149 103 6 11 8 36 4 55
-5 33 -1 40 63 108 38 39 72 81 75 92 8 25 115 82 154 82 27 0 35 -7 65 -57
42 -73 118 -263 147 -368 12 -44 36 -123 52 -175 54 -175 76 -318 103 -670 24
-306 29 -352 38 -339 177 242 231 335 485 857 22 46 43 79 46 74 6 -10 -203
-448 -284 -592 -58 -105 -154 -252 -208 -318 -62 -78 -62 -128 8 -532 45 -265
59 -322 76 -316 7 3 71 -15 141 -40 71 -25 290 -102 488 -170 1029 -357 926
-324 917 -292 -4 16 -2 19 9 14 8 -4 5 0 -6 8 -10 9 -44 24 -75 33 -30 9 -131
42 -225 74 -93 32 -325 110 -515 174 -348 117 -498 169 -535 185 -42 18 14 10
126 -20 170 -44 1043 -322 1145 -365 49 -20 103 -40 120 -44 42 -11 85 -41 77
-54 -3 -6 -1 -7 5 -3 17 10 16 12 -20 49 -29 29 -70 45 -333 131 -384 125
-431 142 -480 176 -22 15 -81 48 -130 72 -87 42 -93 43 -188 43 -95 0 -116 7
-117 37 0 15 51 21 166 21 101 0 135 -5 215 -28 52 -15 126 -42 164 -60 39
-17 87 -37 107 -44 20 -7 42 -19 48 -27 7 -7 20 -14 30 -14 10 0 58 -18 107
-41 204 -94 433 -175 778 -275 50 -15 101 -30 115 -35 14 -5 133 -40 265 -78
132 -38 253 -74 269 -80 29 -12 314 -86 556 -146 74 -18 178 -41 230 -50 167
-28 212 -36 226 -42 8 -3 14 1 14 11 0 10 -9 16 -23 16 -29 0 -78 51 -146 151
-50 73 -94 119 -274 288 -43 40 -74 71 -70 69 4 -2 28 -13 53 -25 25 -12 105
-71 178 -132 130 -109 151 -124 136 -98 -16 26 251 -231 302 -291 52 -61 53
-63 47 -115 -6 -64 -11 -84 -61 -267 -26 -98 -51 -165 -75 -205 -20 -33 -57
-112 -82 -175 -26 -63 -64 -152 -85 -197 -21 -46 -37 -83 -35 -83 3 0 19 14
36 31 30 29 33 30 45 15 11 -15 17 -12 61 34 26 29 60 69 74 90 25 37 26 40
13 100 -7 34 -9 71 -5 82 6 17 9 15 24 -19 12 -29 17 -80 20 -213 4 -163 7
-185 42 -320 21 -80 39 -153 40 -162 0 -10 8 -25 16 -35 9 -10 26 -36 39 -58
49 -84 208 -323 219 -329 6 -4 9 -12 6 -17 -15 -24 5 -44 45 -45 37 -1 81 -26
78 -43 -1 -3 2 -15 6 -26 4 -11 12 -32 18 -47 12 -33 6 -44 -31 -51 -35 -7
-71 -60 -71 -104 0 -17 6 -48 14 -69 7 -22 19 -79 25 -129 21 -156 15 -145 73
-145 50 0 50 0 46 30 -3 16 -1 30 4 30 11 0 48 -38 48 -50 0 -6 59 -10 158
-10 l157 0 -65 63 c-36 34 -97 91 -135 127 -116 108 -215 234 -197 252 7 7 25
-9 58 -53 69 -93 386 -400 399 -387 3 3 -49 53 -114 112 -156 140 -218 216
-205 249 6 17 -46 60 -86 72 -25 8 -40 22 -40 40 0 6 3 5 8 -1 4 -6 24 -14 45
-17 30 -5 408 -221 585 -336 11 -7 11 -15 -2 -45 -8 -20 -18 -36 -21 -36 -4 0
-76 48 -161 106 -85 58 -154 103 -154 101 0 -3 60 -50 133 -105 72 -55 142
-110 154 -121 22 -21 31 -21 243 -19 l221 3 -51 75 c-29 41 -96 133 -150 205
-96 127 -100 134 -154 285 -108 307 -155 425 -237 604 -33 71 -58 130 -56 132
12 12 447 -346 702 -576 60 -55 113 -100 117 -100 5 0 8 47 8 104 l0 103 -42
28 c-73 49 -269 204 -308 245 -3 3 -39 35 -80 71 -100 87 -173 141 -305 224
-60 39 -180 118 -265 176 -161 111 -318 200 -603 345 -144 73 -167 88 -163
105 4 10 9 28 12 39 7 26 16 23 157 -46 124 -61 258 -142 479 -286 374 -245
602 -404 733 -513 140 -117 306 -246 358 -280 l27 -17 0 69 c0 64 -2 70 -27
85 -16 9 -60 45 -99 80 -487 435 -604 518 -1189 850 -261 149 -307 172 -363
187 -46 13 -46 12 -29 58 l12 32 151 -68 c183 -82 421 -205 518 -268 82 -53
283 -203 511 -383 573 -451 515 -408 515 -386 0 8 -28 36 -62 63 -35 28 -180
142 -323 255 -361 285 -585 452 -684 510 -101 59 -332 175 -496 248 l-120 53
4 49 c5 84 -18 124 -149 259 -65 68 -116 127 -113 132 3 6 1 7 -6 3 -14 -9
-41 11 -37 27 1 7 1 8 -2 4 -5 -9 -82 62 -82 75 0 4 7 8 16 8 8 0 12 -5 9 -10
-9 -14 13 -40 33 -40 14 0 14 1 0 13 -15 10 -15 14 -2 25 12 11 14 10 14 -4 0
-14 7 -15 39 -10 30 4 40 2 45 -10 4 -11 19 -15 53 -14 27 0 95 1 153 1 58 1
322 2 587 3 380 1 483 -2 483 -11 0 -18 29 -16 36 2 10 24 33 17 40 -11 l7
-26 18 28 c18 27 59 52 59 35 0 -13 82 -34 89 -23 6 10 26 15 49 13 7 0 11 -5
7 -10 -3 -5 0 -13 6 -17 8 -4 9 -3 5 4 -5 8 3 12 26 12 18 0 47 9 65 19 35 22
43 19 44 -18 l0 -26 12 23 c9 20 16 23 46 17 29 -5 34 -4 24 6 -17 17 -16 30
1 23 8 -3 16 -29 20 -67 13 -121 67 -511 76 -546 8 -34 8 -33 9 19 0 30 -6 95
-14 144 -20 120 -71 589 -90 816 -28 346 -45 585 -45 637 l0 52 75 52 75 51 0
78 0 78 -60 22 -60 22 0 44 c0 43 1 44 28 38 36 -9 62 -23 62 -33 0 -5 7 -11
15 -15 11 -4 15 2 15 22 0 26 -3 28 -112 52 -98 22 -113 28 -116 46 -2 17 7
25 49 41 52 19 53 19 102 1 27 -10 57 -17 66 -15 11 3 5 8 -16 17 -21 7 -33
19 -33 31 0 16 4 17 26 9 34 -13 34 -13 34 10 0 11 -15 33 -32 49 -18 16 -30
33 -25 37 4 4 18 -3 32 -16 l25 -23 0 74 c0 41 -4 79 -9 84 -6 6 -30 51 -55
100 -25 50 -45 84 -46 77 0 -18 49 -140 68 -170 8 -12 13 -24 11 -26 -2 -2
-54 -26 -114 -54 -79 -36 -142 -56 -224 -73 -114 -22 -115 -22 -240 -5 -198
27 -190 25 -197 53 -9 35 -27 23 -42 -28 -11 -38 -24 -52 -95 -106 -134 -99
-275 -192 -303 -199 -14 -4 -51 -1 -82 6 -31 7 -69 13 -84 13 -17 0 -28 5 -28
14 0 7 -7 16 -15 19 -47 18 7 106 143 236 56 53 102 101 102 106 0 20 89 25
153 9 60 -14 64 -14 125 10 34 14 62 30 63 37 0 6 38 43 85 81 93 76 150 132
143 139 -2 3 -49 -36 -104 -85 -146 -130 -194 -161 -259 -167 -33 -3 -56 0
-60 7 -4 6 -17 11 -30 11 -25 0 -46 17 -46 38 0 7 22 37 49 65 67 71 157 207
137 207 -2 0 -23 -30 -47 -68 -24 -37 -70 -95 -103 -130 -44 -48 -57 -69 -54
-87 4 -20 0 -23 -36 -28 -32 -5 -45 -2 -60 13 -20 19 -20 20 12 92 144 334
190 462 237 658 20 85 44 166 52 178 8 13 13 25 11 27 -14 12 -131 25 -236 25
-130 0 -346 31 -457 65 -32 9 -91 15 -160 15 -122 0 -241 15 -261 31 -7 6 -18
8 -23 4 -20 -11 -148 35 -194 70 -51 39 -101 129 -113 203 -8 52 6 60 74 42
26 -6 128 -26 227 -42 170 -29 198 -31 495 -35 256 -3 319 -1 335 11 18 13 17
14 -11 31 -16 10 -40 25 -54 34 -14 10 -41 23 -60 31 -50 19 -225 123 -293
174 -266 199 -384 350 -394 503 -4 50 -1 73 10 87 14 19 17 17 78 -41 88 -83
323 -270 444 -352 255 -173 449 -278 646 -349 150 -55 404 -175 412 -194 5
-13 55 -16 74 -5 17 11 158 21 186 13 14 -3 63 -34 109 -69 46 -35 89 -67 96
-71 9 -6 12 134 12 683 l0 691 -1868 0 -1869 0 -62 -26 c-64 -25 -84 -27 -56
-4 8 7 15 16 15 21 0 5 -158 9 -354 9 l-355 0 -258 -154 c-142 -85 -268 -164
-280 -175 -12 -12 -25 -21 -28 -21 -16 0 -74 -48 -67 -55 4 -5 2 -5 -5 -1 -6
3 -31 -7 -55 -22 -24 -16 -69 -46 -100 -67 -32 -21 -58 -42 -58 -47 0 -4 -7
-8 -16 -8 -9 0 -18 -9 -21 -19 -3 -11 -10 -18 -17 -15 -7 3 -50 -23 -97 -56
-46 -34 -90 -65 -97 -69 -8 -4 -20 -42 -27 -83 -7 -41 -18 -84 -23 -95 -6 -11
-38 -30 -74 -43 -82 -29 -248 -107 -326 -153 l-62 -36 0 34 c0 32 11 44 141
157 77 68 151 128 165 134 13 5 41 26 62 46 78 75 426 316 657 454 107 65 302
175 428 244 42 23 77 44 77 46 0 2 -700 4 -1555 4 -855 0 -1555 -4 -1555 -8 0
-5 6 -14 13 -21 10 -10 7 -16 -12 -32 -13 -10 -33 -20 -45 -21 -11 0 -25 -2
-31 -3 -5 -2 -13 -3 -17 -4 -4 0 -2 -15 4 -32 9 -26 14 -29 38 -24 46 10 79
-42 48 -73 -14 -14 -54 -16 -62 -4 -3 5 -21 9 -41 10 -25 1 -35 -3 -35 -13 0
-39 -69 14 -85 65 -5 16 -10 17 -24 9 -14 -9 -30 -2 -85 37 -37 27 -89 64
-114 82 l-47 32 -410 0 -410 0 25 -20 c27 -22 148 -107 305 -215 55 -38 127
-88 160 -111 33 -23 103 -71 155 -107 194 -132 465 -329 469 -339 4 -12 1 -10
-64 32 -107 71 -137 80 -42 13 36 -25 44 -36 40 -53 -4 -14 -12 -20 -23 -17
-9 2 -133 78 -276 169 -142 90 -278 175 -302 189 -23 13 -139 86 -258 162
-170 108 -220 135 -230 126 -11 -9 -14 -7 -14 10 0 13 -4 19 -10 16 -6 -4 -8
-10 -5 -15 3 -5 1 -11 -4 -14 -12 -8 -61 14 -61 26 0 5 -4 7 -9 4 -11 -7 -33
19 -24 28 4 4 0 4 -10 0 -9 -3 -17 -2 -17 4 0 5 7 13 17 16 14 6 14 8 -3 21
-10 8 -23 14 -29 14 -5 0 -2 -6 8 -13 16 -12 16 -14 1 -20 -23 -9 -24 -8 -24
12 0 18 -18 42 -31 42 -4 0 -9 -6 -12 -14 -3 -8 1 -13 10 -12 9 0 18 -5 20
-12 4 -9 -2 -10 -24 -1 -44 16 -94 59 -86 72 4 7 0 6 -10 -2 -9 -7 -17 -9 -17
-4 0 5 -14 10 -32 11 -18 2 -30 0 -27 -2z m2674 -91 c114 -39 325 -156 384
-214 93 -91 181 -257 227 -428 19 -74 11 -277 -17 -413 -30 -142 -134 -344
-178 -346 -12 -1 -36 -11 -53 -24 -26 -19 -34 -21 -56 -10 l-27 12 25 14 25
15 -32 -4 c-39 -4 -39 -4 -12 34 16 22 29 29 57 31 l37 1 -32 4 c-36 5 -41 14
-18 33 8 7 15 19 15 26 0 8 4 14 9 14 5 0 12 15 15 33 9 48 42 97 66 97 14 0
20 7 20 23 -1 15 -19 36 -59 67 -50 38 -58 49 -54 70 l5 25 -14 -25 c-25 -45
-61 -141 -55 -146 5 -6 26 37 41 84 7 21 7 21 50 -5 40 -24 43 -28 36 -57 -9
-37 -21 -66 -26 -66 -3 0 -30 8 -62 18 -31 11 -76 25 -99 32 -24 7 -43 16 -43
20 0 3 7 28 16 54 9 26 14 49 11 52 -2 2 -14 -24 -26 -58 -32 -91 -50 -128
-58 -126 -13 3 -73 -36 -73 -47 0 -5 20 -10 44 -11 52 -1 106 -21 106 -39 0
-7 7 -18 15 -25 11 -9 14 -23 9 -49 -9 -56 -15 -72 -24 -66 -19 11 -15 -31 4
-54 l21 -24 -37 7 c-21 3 -53 8 -70 11 -29 5 -36 2 -53 -25 -11 -16 -26 -30
-33 -30 -7 0 -63 -39 -123 -86 -61 -47 -116 -87 -123 -90 -7 -3 -20 4 -30 15
-18 19 -17 21 18 52 20 17 54 44 75 60 48 34 58 49 40 60 -11 6 -6 16 21 44
27 28 40 35 60 31 25 -5 25 -5 3 6 -13 6 -23 14 -23 17 1 19 23 36 47 36 21 0
29 5 31 23 2 12 -1 22 -7 22 -15 0 -14 30 2 31 16 1 -40 18 -76 24 -15 2 -25
0 -22 -5 3 -4 -2 -11 -10 -14 -19 -7 -33 23 -16 34 10 5 9 9 -2 13 -20 8 -29
-39 -11 -54 18 -15 18 -34 -2 -53 -8 -9 -12 -16 -8 -16 3 0 1 -6 -5 -14 -9
-11 -9 -15 1 -19 8 -3 -26 -42 -87 -101 -55 -53 -103 -96 -106 -96 -3 0 -16
11 -28 24 l-23 25 46 63 c25 35 70 95 100 133 58 73 67 101 39 112 -12 5 -24
-4 -42 -27 -14 -19 -42 -53 -61 -76 -42 -49 -72 -88 -103 -131 l-23 -31 -36
27 -36 27 94 139 c89 133 106 167 85 179 -19 12 -38 -8 -110 -114 -42 -62 -81
-110 -90 -110 -13 0 -13 -2 -3 -9 10 -6 8 -10 -8 -14 -16 -4 -21 -11 -17 -22
6 -13 3 -14 -14 -5 -11 6 -17 15 -14 19 2 5 -3 8 -12 7 -33 -2 -23 30 47 164
73 141 84 180 51 180 -14 0 -31 -20 -57 -69 l-38 -69 -52 45 -52 45 19 45 c27
64 25 85 -7 81 -27 -3 -23 4 -109 -208 -22 -52 -40 -96 -41 -98 -1 -2 -12 1
-23 8 -17 9 -19 15 -11 30 10 19 6 24 -12 21 -5 0 -8 4 -8 10 0 6 7 8 17 5 38
-15 44 45 8 77 l-25 22 16 60 c9 33 18 62 20 64 2 2 12 -3 23 -13 18 -16 19
-14 32 44 7 33 18 60 23 60 5 0 0 9 -12 20 -23 21 -52 27 -52 9 0 -16 -20 1
-30 25 -7 18 -10 14 -20 -27 -14 -54 -21 -53 -69 18 -26 39 -27 44 -13 58 12
13 13 19 3 31 -7 8 -19 12 -28 9 -14 -6 -13 -46 3 -88 4 -8 -3 -15 -17 -17
-19 -3 -26 -18 -50 -108 -15 -58 -32 -118 -38 -135 -27 -75 -21 -69 -55 -56
-17 6 -19 16 -17 65 1 31 9 69 17 84 7 15 14 34 14 42 0 9 5 21 12 28 9 9 8
12 -5 12 -12 0 -17 8 -17 28 0 47 21 196 31 217 5 11 8 35 7 54 -4 48 25 66
53 31 19 -23 78 -60 122 -76 9 -3 17 -10 17 -15 0 -5 7 -9 15 -9 8 0 16 -4 16
-10 3 -20 4 -25 12 -37 15 -23 -3 -33 -23 -13 -24 24 -26 42 -5 34 22 -9 18 4
-6 16 -15 9 -24 8 -35 -1 -12 -10 -8 -18 28 -52 24 -23 45 -39 48 -37 3 2 10
20 17 39 11 31 10 36 -8 49 -11 8 -32 25 -47 38 -26 23 -27 24 -8 39 25 19 56
19 84 -1 22 -15 23 -14 33 15 7 18 18 31 28 31 10 0 24 15 34 34 l16 34 -65
23 c-35 12 -64 25 -64 28 0 3 9 21 20 39 l20 32 -26 0 c-14 0 -34 5 -44 10
-17 9 -22 5 -39 -29 -17 -31 -25 -38 -42 -34 -11 3 -23 11 -25 18 -7 17 30 77
41 67 5 -4 5 -1 1 6 -4 7 3 26 15 45 34 47 166 175 213 205 90 58 203 101 286
108 36 3 67 8 70 11 3 3 64 3 135 0 107 -4 144 -10 210 -32z m4372 -447 c46
-59 133 -194 180 -278 53 -94 130 -303 99 -269 -10 11 -117 178 -183 287 -14
23 -15 23 -41 6 -25 -16 -27 -16 -37 0 -29 50 -34 52 -29 15 3 -21 1 -40 -4
-43 -11 -7 -76 63 -67 72 3 3 11 0 17 -6 19 -19 26 -14 20 13 -6 36 13 55 50
48 37 -7 39 -13 -42 116 -40 65 -80 115 -104 133 -21 15 -32 28 -24 28 8 0 23
-7 34 -15 23 -17 43 -20 26 -3 -7 7 -12 17 -12 22 0 13 62 -54 117 -126z
m-322 -581 c-1 -262 -4 -321 -24 -447 -25 -161 -80 -442 -88 -450 -3 -3 -3 13
1 35 81 495 91 580 97 805 5 206 5 229 -4 310 -6 60 -5 72 5 62 10 -10 13 -83
13 -315z m-7123 304 c3 -9 185 -30 453 -52 66 -5 264 -25 440 -44 176 -18 397
-41 490 -51 94 -9 172 -19 175 -21 6 -6 -59 -1 -415 28 -132 11 -297 24 -367
29 -71 6 -185 14 -255 20 -71 5 -157 13 -192 16 -45 5 -62 4 -58 -4 4 -5 1
-12 -5 -15 -13 -4 77 -12 257 -23 55 -3 179 -12 275 -20 247 -20 526 -41 800
-60 129 -8 242 -19 250 -23 8 -5 15 -14 15 -22 0 -22 -101 -22 -535 0 -516 26
-1005 45 -1156 46 -67 0 -117 3 -110 8 6 4 -15 7 -46 6 -35 -2 -70 4 -90 13
-18 9 -51 20 -73 25 -39 9 -41 8 -43 -15 -1 -14 3 -31 9 -38 8 -10 7 -17 -4
-29 -32 -31 -43 -16 -57 75 -4 30 -10 61 -12 69 -6 27 34 23 84 -8 27 -17 51
-31 53 -31 1 0 5 10 8 23 16 59 96 132 109 98z m2121 -133 c2 -7 7 -15 12 -18
23 -11 45 -35 45 -50 0 -13 -61 -270 -66 -278 -1 -2 -49 17 -82 34 -1 0 2 12
7 25 6 14 10 18 11 9 3 -30 20 47 24 108 4 67 12 85 25 63 6 -9 11 -10 15 -2
4 6 5 15 1 20 -3 6 4 15 17 22 l22 12 -22 17 c-12 10 -22 28 -22 41 0 23 10
21 13 -3z m5100 -125 c98 -148 235 -389 226 -397 -2 -1 -25 -13 -51 -25 -58
-28 -161 -135 -211 -221 -36 -63 -36 -64 -6 -25 62 77 185 191 236 217 l51 27
51 -120 c28 -66 51 -122 51 -124 0 -2 -15 -1 -34 2 -46 7 -161 -13 -214 -39
-46 -22 -112 -83 -112 -104 0 -6 -11 -36 -25 -66 -28 -60 -33 -46 -9 28 24 71
57 109 136 160 84 54 84 72 1 21 -102 -62 -126 -97 -163 -228 -25 -91 -25
-105 0 -180 17 -50 85 -169 96 -169 2 0 -4 17 -13 38 -9 20 -18 72 -20 115 -3
67 -1 80 17 99 11 12 20 29 20 37 1 12 3 11 12 -4 16 -30 37 -43 57 -38 35 9
56 82 37 126 -11 24 16 23 39 -3 11 -13 16 -30 13 -50 -3 -20 0 -30 9 -30 19
0 16 52 -7 118 -12 31 -22 61 -23 65 -1 5 23 16 54 26 l56 18 11 -44 c24 -88
5 -216 -43 -290 -18 -27 -8 -31 11 -6 7 10 15 15 18 12 3 -3 -12 -31 -34 -63
-23 -32 -32 -53 -22 -47 32 17 60 56 98 136 37 77 39 85 42 203 2 67 8 122 12
122 11 0 20 -65 20 -145 0 -38 7 -214 16 -390 l17 -319 -23 -95 c-20 -77 -32
-104 -65 -143 -67 -82 -85 -110 -85 -132 1 -16 4 -14 15 11 9 21 19 31 28 27
16 -6 73 54 89 95 17 43 21 5 8 -78 -13 -85 -52 -240 -135 -541 -31 -113 -67
-245 -80 -295 -85 -314 -91 -333 -133 -365 -49 -39 -96 -44 -242 -26 -74 9
-155 16 -180 16 -131 0 -669 124 -929 215 -185 65 -299 154 -464 360 -44 55
-84 102 -88 103 -17 7 -9 -20 16 -52 14 -18 25 -36 25 -40 0 -11 -74 2 -142
25 -109 36 -306 163 -372 241 -76 88 -77 82 26 183 73 72 93 87 106 78 17 -10
25 -20 142 -179 36 -49 93 -119 128 -155 73 -78 83 -101 15 -35 -44 43 -129
86 -171 86 -9 0 -48 25 -87 56 -81 65 -95 74 -76 51 18 -23 146 -117 159 -117
26 0 144 -62 180 -94 21 -20 42 -33 46 -29 3 4 25 -11 49 -33 54 -51 111 -96
215 -168 83 -58 114 -69 70 -24 -60 59 -197 346 -198 411 0 19 30 -13 120
-126 25 -31 48 -57 51 -57 4 0 -18 61 -48 136 -62 155 -81 242 -84 376 l-1 94
73 132 c41 72 77 131 80 132 4 0 22 -14 40 -31 75 -70 117 -98 176 -118 76
-26 119 -27 47 -2 -77 28 -113 49 -186 108 -64 50 -81 73 -58 73 6 0 10 -4 10
-8 0 -18 139 -112 203 -137 59 -23 80 -26 145 -23 65 3 90 10 155 42 43 21 80
43 83 48 3 5 -32 -10 -78 -34 -79 -41 -87 -43 -165 -41 -73 1 -90 5 -140 34
-32 17 -82 50 -111 71 l-52 39 32 47 32 46 8 -29 c18 -69 129 -156 198 -154
16 0 8 5 -23 13 -26 7 -60 25 -76 40 l-27 26 24 54 c25 53 25 54 45 35 29 -26
53 -32 78 -18 l22 11 -24 19 c-17 13 -20 19 -9 20 8 1 20 2 25 4 6 1 13 3 17
3 4 1 3 14 -2 28 -6 16 -6 23 0 19 5 -3 30 -6 55 -7 26 0 48 -6 50 -12 22 -78
25 -81 20 -14 -6 75 -20 124 -44 152 -15 17 -14 18 54 11 89 -10 103 -15 145
-60 l35 -38 -30 7 c-29 7 -29 6 20 -45 28 -29 56 -58 64 -64 12 -10 12 -39 3
-181 -6 -92 -10 -170 -8 -171 1 -2 31 70 65 158 35 88 65 159 67 156 2 -2 -1
-27 -7 -56 -17 -78 -5 -83 29 -11 16 36 71 150 121 253 145 300 146 304 213
552 l14 50 13 -115 c7 -63 18 -171 25 -240 l12 -125 22 70 c48 158 132 547
151 705 6 47 12 160 13 252 2 93 4 168 5 168 1 0 22 -30 46 -67z m-1153 -51
c0 -5 -16 -27 -35 -49 -24 -29 -31 -43 -23 -47 7 -3 4 -4 -7 -1 -13 3 -38 -6
-62 -21 -38 -25 -39 -28 -23 -44 9 -9 24 -19 34 -23 18 -7 37 -47 29 -61 -3
-4 -9 -2 -14 5 -6 10 -9 11 -9 2 0 -7 -7 -13 -16 -13 -8 0 -13 -4 -10 -9 7
-11 -44 -21 -75 -15 -18 4 -20 3 -10 -4 16 -11 -19 -29 -108 -56 -25 -7 -73
-25 -106 -38 -33 -14 -65 -23 -71 -21 -6 2 -24 -3 -40 -12 -19 -9 -30 -11 -33
-4 -5 15 31 40 52 35 9 -2 15 0 12 4 -6 9 86 80 103 80 6 0 30 18 54 40 24 22
49 38 56 35 7 -3 10 -1 7 4 -9 16 15 23 33 10 14 -11 15 -11 5 1 -18 20 -16
30 7 30 12 0 20 7 20 17 0 9 2 14 5 11 3 -3 27 14 53 39 82 77 172 132 172
105z m-6408 -41 c51 -22 310 -164 353 -194 78 -54 165 -121 165 -128 0 -4 -42
-37 -92 -75 -161 -118 -303 -273 -450 -489 -248 -364 -372 -684 -428 -1105
-17 -127 -24 -235 -27 -470 l-5 -305 -39 -2 c-21 -2 -57 -12 -79 -23 -22 -11
-40 -16 -40 -11 0 5 15 83 34 173 30 138 96 554 96 597 0 43 -12 -14 -34 -169
-30 -197 -55 -333 -92 -497 -24 -108 -27 -113 -59 -129 -26 -12 -38 -27 -55
-73 -12 -32 -23 -66 -24 -76 -2 -11 -9 -21 -16 -23 -9 -3 -11 1 -7 12 4 9 31
134 62 278 30 145 61 290 69 323 8 33 31 146 51 250 20 105 47 246 60 315 14
69 34 179 45 245 20 120 57 331 105 610 14 83 32 175 39 205 8 30 21 95 30
143 30 158 122 521 144 564 12 23 32 49 44 57 30 21 97 20 150 -3z m2018 -50
c229 -41 223 -39 310 -66 182 -56 393 -158 550 -266 130 -89 370 -335 544
-559 52 -68 71 -203 70 -505 -1 -287 -11 -384 -104 -965 -11 -70 -69 -331
-117 -523 l-36 -148 -56 -54 c-67 -64 -170 -148 -225 -183 -47 -29 -226 -122
-237 -122 -4 0 2 28 13 63 58 185 119 505 140 727 19 207 16 609 -6 794 -35
302 -108 643 -183 861 -81 234 -239 501 -382 646 -84 85 -112 98 -262 120 -74
11 -86 10 -159 -11 -88 -25 -134 -55 -58 -38 23 5 92 13 152 17 203 15 260
-16 415 -224 208 -278 304 -512 395 -960 91 -447 115 -865 70 -1230 -26 -213
-118 -668 -145 -714 -5 -9 -27 -69 -49 -134 -40 -117 -172 -436 -210 -506 -16
-28 -19 -31 -15 -11 3 14 9 61 15 105 6 44 13 100 16 125 11 84 8 514 -5 620
-14 126 -49 386 -57 418 -2 13 -9 20 -14 17 -6 -4 -8 -9 -6 -13 4 -6 11 -59
45 -337 10 -80 -6 -140 -79 -284 -73 -144 -114 -205 -213 -320 -74 -86 -96
-118 -59 -90 15 13 16 12 3 -3 -7 -10 -17 -16 -21 -13 -5 3 -54 -45 -110 -107
-148 -164 -248 -243 -381 -302 l-56 -25 5 89 c4 82 3 92 -22 135 -14 26 -26
54 -26 61 0 7 -9 18 -19 24 -26 14 -31 13 -31 -6 0 -36 -165 -81 -356 -96
-140 -11 -155 -10 -200 7 -163 61 -649 280 -681 306 -25 21 -188 361 -222 464
-42 126 -46 185 -26 365 12 109 14 186 10 258 -7 96 -6 104 10 100 11 -2 23
-19 30 -43 6 -22 18 -52 26 -67 13 -25 14 -18 14 80 0 196 45 375 111 448 30
31 42 30 87 -7 45 -37 48 -55 7 -34 -39 20 -62 13 -95 -31 -34 -44 -50 -98
-59 -189 l-6 -70 27 53 c15 29 32 51 38 49 6 -2 9 -32 7 -73 -3 -74 6 -101 31
-91 37 14 46 169 12 207 -9 10 -13 24 -9 35 6 14 4 16 -7 10 -12 -8 -12 -6 -1
8 8 9 11 20 8 26 -4 5 5 22 18 38 l25 28 15 -38 c15 -35 15 -39 -5 -78 -11
-23 -16 -38 -10 -35 6 4 13 -5 17 -21 3 -15 11 -41 17 -58 7 -16 12 -58 11
-92 0 -34 3 -60 8 -57 4 3 8 15 8 28 0 12 4 26 9 32 5 5 12 25 14 44 3 19 4
-17 3 -80 -2 -85 -7 -123 -19 -145 -9 -16 -17 -34 -17 -38 0 -5 -16 -33 -36
-63 -40 -61 -70 -82 -87 -65 -16 16 -24 14 -30 -10 -4 -15 -2 -19 8 -15 8 3
15 0 18 -7 7 -23 98 77 133 148 27 54 37 91 45 160 27 245 22 332 -23 424 -13
25 -22 49 -21 53 2 4 -11 18 -28 32 -41 35 -89 34 -135 0 -19 -15 -34 -24 -34
-20 0 7 68 175 117 291 37 86 40 90 73 93 29 3 40 -2 64 -30 16 -18 25 -26 21
-18 -17 32 -49 59 -76 65 l-28 6 22 37 c40 70 102 147 180 227 60 61 77 74 73
55 -51 -214 -67 -505 -42 -740 24 -215 102 -550 128 -550 6 0 7 8 3 18 -14 36
-64 220 -79 292 -59 289 -66 576 -22 824 17 93 40 183 62 240 19 50 39 105 43
121 4 17 20 54 35 83 40 79 24 75 -20 -5 -65 -120 -76 -134 -165 -229 -99
-105 -160 -188 -214 -289 -21 -38 -45 -81 -53 -95 -9 -14 -17 -32 -18 -40 -1
-8 -58 -151 -125 -317 -81 -198 -128 -303 -138 -303 -11 0 -13 -17 -8 -95 3
-52 2 -95 -2 -95 -8 0 -34 110 -30 125 1 6 -1 66 -6 135 -9 136 -10 138 -21
35 -7 -64 -8 -67 -15 -35 -4 19 -13 93 -19 164 -22 243 11 468 115 775 38 114
39 120 26 106 -16 -17 -108 -325 -132 -445 -33 -160 -33 -452 -1 -610 25 -119
28 -175 10 -164 -8 5 -9 -3 -5 -29 4 -25 1 -39 -9 -48 -12 -9 -14 -5 -16 27
-1 34 -2 32 -8 -16 -4 -32 -7 -43 -9 -25 -2 35 -21 73 -21 43 0 -10 -5 -18
-11 -18 -8 0 -10 -19 -6 -62 3 -37 1 -55 -3 -43 -5 11 -10 43 -11 70 l-2 50
-6 -45 c-9 -69 -22 -25 -29 100 -4 72 -8 95 -13 75 -8 -35 -15 127 -11 245 5
154 69 430 146 634 29 76 32 93 11 56 -33 -57 -121 -353 -152 -505 -31 -158
-23 -542 17 -775 11 -63 29 -172 40 -242 39 -250 65 -333 184 -600 14 -32 22
-58 17 -58 -18 0 -83 101 -135 211 -29 61 -56 107 -60 100 -4 -6 20 -66 52
-133 33 -68 59 -124 58 -125 -6 -7 -132 80 -143 99 -28 51 -92 319 -138 579
-59 331 -39 691 61 1123 48 204 76 289 146 441 152 329 375 647 564 808 125
105 322 236 347 229 4 -1 30 13 57 32 27 18 115 62 196 96 154 65 323 109 427
111 28 1 66 5 82 10 17 4 111 6 210 4 147 -2 212 -9 355 -34z m4406 -208 c-2
-2 -18 -5 -36 -5 -17 -1 -34 -7 -37 -15 -8 -20 4 -28 22 -13 13 11 15 9 15
-14 0 -17 -5 -26 -16 -26 -11 0 -14 -5 -10 -16 3 -9 6 -22 6 -30 0 -9 5 -12
10 -9 6 3 10 1 10 -4 0 -6 -5 -11 -11 -11 -5 0 -7 -4 -4 -10 3 -5 0 -10 -7
-11 -10 0 -10 -2 0 -6 22 -9 20 -12 -62 -105 -9 -10 -16 -24 -16 -32 0 -8 -6
-16 -12 -18 -7 -3 -13 -22 -13 -46 0 -47 -2 -50 -21 -24 -13 16 -13 16 -14 0
0 -10 -7 -18 -15 -18 -9 0 -29 -14 -46 -31 -23 -23 -34 -28 -42 -20 -6 6 -15
11 -19 11 -13 0 -9 -28 5 -33 6 -3 2 -6 -11 -6 -13 -1 -22 2 -20 7 30 63 30
63 50 45 17 -15 18 -15 18 5 0 11 5 24 10 27 15 9 12 25 -4 25 -9 0 -12 8 -8
25 3 18 0 25 -11 25 -9 0 -21 8 -26 18 -7 12 -10 13 -11 3 0 -8 7 -19 16 -25
14 -11 13 -14 -5 -36 -11 -14 -20 -20 -21 -14 0 5 6 16 13 24 6 8 2 6 -9 -3
-17 -14 -23 -15 -27 -5 -3 7 -6 4 -6 -8 -1 -11 4 -25 11 -32 9 -9 9 -12 0 -12
-19 0 -27 4 -24 14 2 5 -4 6 -12 3 -9 -4 -5 8 11 31 14 20 30 36 35 34 6 -2 8
4 5 11 -8 22 13 39 30 25 12 -9 13 -7 8 14 -4 15 -2 29 4 32 6 4 11 1 11 -6 0
-10 3 -9 9 2 6 8 7 18 5 22 -3 4 2 5 12 1 13 -5 15 -2 10 13 -4 14 2 25 24 39
17 11 30 25 30 30 0 6 23 34 50 63 28 29 50 55 50 59 0 4 9 16 20 28 15 16 29
20 51 17 16 -2 28 -6 25 -9z m254 5 c0 -7 14 -105 30 -218 17 -113 34 -225 37
-249 l6 -44 -54 7 c-32 4 -101 0 -168 -9 -152 -20 -145 -22 -112 28 43 64 185
342 217 425 25 66 44 91 44 60z m1493 -126 c10 -59 33 -168 51 -242 19 -74 33
-136 31 -138 -10 -10 -69 167 -104 311 -23 92 -41 171 -41 176 0 4 10 6 23 4
21 -4 25 -14 40 -111z m-4473 -27 c0 -6 11 -17 25 -23 14 -6 26 -15 26 -19 9
-55 -2 -90 -23 -77 -6 4 -13 3 -17 -2 -7 -11 -97 -74 -105 -74 -5 0 -73 -43
-92 -59 -6 -5 -20 -12 -32 -15 -12 -4 -51 -27 -86 -52 -36 -24 -70 -44 -75
-44 -5 0 -19 13 -30 29 -19 26 -19 30 -5 42 15 12 14 14 -7 20 -24 7 -23 7 4
9 15 1 31 3 35 4 16 2 137 86 177 122 l40 36 -53 -36 c-45 -31 -58 -36 -88
-30 l-35 6 57 44 c54 42 105 57 118 35 7 -11 46 -2 46 11 0 5 6 15 13 22 6 7
24 27 39 44 19 22 33 29 47 25 12 -3 21 -11 21 -18z m2427 -26 c-8 -19 -17
-29 -27 -26 -13 3 -15 -2 -12 -25 2 -16 0 -28 -4 -27 -5 1 -16 1 -24 0 -12 -1
-13 -3 -1 -10 18 -12 5 -32 -17 -25 -13 5 -14 4 -3 -4 12 -8 10 -15 -8 -37
-11 -15 -21 -34 -21 -41 0 -8 -4 -14 -9 -14 -5 0 -13 -10 -17 -22 -7 -22 -15
-34 -46 -69 -10 -10 -15 -19 -11 -19 3 0 -4 -8 -15 -19 -12 -10 -22 -22 -22
-26 0 -10 -16 -27 -181 -197 -74 -76 -163 -161 -199 -190 -36 -29 -73 -60 -83
-70 -10 -10 -21 -18 -25 -18 -4 0 61 67 143 148 159 157 316 326 334 361 6 11
23 33 37 48 16 17 21 29 14 31 -7 3 -16 -2 -21 -9 -8 -12 -10 -12 -18 0 -10
16 -26 -3 -15 -20 4 -7 -1 -7 -15 1 -18 9 -20 14 -10 26 8 9 21 13 35 10 19
-5 22 -2 21 16 -2 27 -40 68 -62 68 -11 0 -15 11 -15 39 0 37 -2 40 -32 44
-25 3 -20 4 16 5 27 1 46 5 43 9 -4 4 -29 6 -55 5 -26 -1 -54 2 -61 7 -15 10
-16 10 64 26 14 3 25 1 25 -5 0 -5 -10 -10 -22 -10 -12 0 -19 -3 -15 -6 10
-10 58 5 52 16 -4 6 13 10 40 10 25 0 53 4 63 9 13 7 124 31 184 40 3 1 1 -13
-5 -30z m640 -434 c6 -49 12 -122 12 -161 l1 -72 -42 9 c-72 13 -273 39 -307
39 -39 0 -137 -39 -194 -77 -71 -48 -70 -48 -58 -24 7 12 9 27 5 33 -4 7 -3 8
4 4 6 -4 16 4 23 16 11 22 11 22 -6 8 -27 -22 14 54 87 162 43 65 65 89 86 94
15 3 54 13 87 21 104 26 199 42 245 40 l45 -2 12 -90z m-1044 -1571 c43 -6 52
-12 112 -83 71 -84 175 -181 245 -227 79 -54 293 -169 382 -206 47 -20 138
-50 201 -67 67 -18 153 -50 204 -76 48 -24 85 -45 81 -45 -4 0 -68 18 -143 40
-74 22 -197 58 -272 80 -265 78 -406 130 -670 246 l-113 49 -21 55 c-54 137
-89 233 -89 242 0 5 8 7 18 4 9 -3 38 -8 65 -12z m-2549 -755 c-89 -92 -266
-215 -421 -293 -63 -31 -62 -31 -56 -6 4 13 41 38 112 73 135 68 225 126 326
215 44 38 82 68 84 66 3 -3 -17 -27 -45 -55z m1 -102 c-24 -80 -30 -89 -84
-136 -32 -28 -96 -75 -142 -105 -46 -30 -104 -68 -129 -85 -114 -78 -153 -100
-163 -94 -5 3 -7 1 -4 -4 6 -9 -32 -43 -47 -43 -8 0 1 36 17 67 8 15 18 43 22
60 3 18 11 35 16 38 5 4 9 15 9 25 0 13 32 36 113 81 142 78 253 152 342 228
39 32 71 58 73 56 2 -2 -8 -41 -23 -88z m-716 -195 c2 -87 2 -88 -31 -118 -18
-16 -41 -36 -50 -43 -19 -14 -180 -82 -184 -78 -2 2 28 41 67 87 39 47 96 120
127 162 31 42 60 77 63 77 4 1 7 -38 8 -87z m661 12 c-11 -36 -24 -72 -31 -80
-38 -46 -204 -167 -271 -197 -42 -19 -103 -53 -135 -75 -60 -41 -163 -96 -163
-87 0 18 47 95 58 95 7 0 11 4 8 9 -7 11 62 53 74 46 5 -3 12 0 16 6 5 8 3 9
-6 4 -9 -6 -11 -4 -6 4 5 7 15 10 23 7 8 -3 12 -2 9 3 -8 12 42 43 56 35 7 -4
8 -3 4 4 -7 11 6 17 27 13 5 -1 6 3 3 8 -3 5 6 17 20 26 15 9 23 12 20 6 -5
-7 -1 -9 8 -5 9 3 16 12 16 20 0 8 7 14 15 14 8 0 15 4 15 10 0 5 12 16 28 24
15 8 72 51 127 95 55 44 101 80 102 81 1 0 -7 -30 -17 -66z m-1053 -476 l-10
-86 -61 -20 c-34 -11 -96 -36 -139 -56 -93 -43 -101 -44 -57 -8 57 46 162 144
219 204 30 32 55 57 56 55 1 -1 -3 -41 -8 -89z m528 -96 c-61 -222 -85 -277
-175 -401 l-32 -43 -35 48 c-80 113 -92 178 -49 269 23 49 90 135 105 135 5 0
5 -19 0 -42 -11 -59 -11 -88 1 -88 6 0 10 6 10 14 0 8 16 50 36 93 34 75 38
79 97 110 48 24 63 28 65 17 2 -8 -8 -58 -23 -112z m-1120 23 c17 -29 27 -60
27 -87 1 -70 -13 -149 -27 -155 -12 -4 -355 127 -423 161 -20 10 -10 14 80 30
101 18 268 66 298 86 8 5 16 10 17 10 1 0 14 -20 28 -45z m595 -90 c0 -44 0
-44 -42 -55 -84 -22 -145 -43 -286 -101 -145 -60 -166 -66 -191 -50 -20 13 11
38 99 85 111 58 373 165 408 166 8 0 12 -15 12 -45z m6579 -172 c102 -53 213
-110 246 -126 101 -50 245 -142 345 -222 52 -41 105 -78 116 -81 26 -7 109
-178 191 -394 30 -80 73 -192 95 -250 45 -119 69 -193 64 -197 -2 -2 -11 9
-21 24 -61 93 -301 370 -312 360 -4 -4 7 -22 23 -40 16 -17 45 -52 64 -77 19
-25 71 -88 117 -141 46 -53 83 -99 83 -102 0 -6 -128 65 -172 94 -15 11 -32
19 -38 19 -10 0 -42 17 -455 242 -323 176 -338 185 -356 207 -9 11 -19 17 -23
14 -3 -4 -6 1 -6 10 0 9 -5 17 -11 17 -5 0 -19 21 -30 48 -11 26 -24 54 -28
63 -36 65 -52 206 -51 437 0 60 -5 102 -14 120 -19 38 -29 72 -20 72 4 0 91
-44 193 -97z m-6561 -25 c103 -63 154 -151 160 -279 4 -82 2 -92 -26 -151 -17
-35 -39 -73 -50 -85 -30 -34 -150 -103 -179 -103 -15 0 -13 5 10 24 19 17 24
26 15 29 -8 3 -6 6 5 6 10 1 15 6 12 12 -4 6 0 16 9 22 13 10 8 12 -30 14 -55
3 -59 5 -45 31 9 17 8 22 -11 28 -15 5 -26 0 -39 -17 -17 -22 -16 -23 8 -36
14 -7 35 -13 46 -13 20 0 21 -1 4 -17 -17 -17 -19 -17 -32 0 -13 18 -14 18
-27 -2 -7 -12 -18 -21 -25 -21 -17 0 -17 20 0 21 6 0 -1 5 -18 10 -20 6 -31 5
-37 -3 -5 -9 -13 -6 -26 10 -11 12 -27 22 -36 22 -13 0 -15 6 -10 28 4 15 8
29 10 31 4 4 -27 30 -37 31 -4 0 -9 -18 -13 -41 -7 -45 -29 -49 -34 -6 -2 14
-10 31 -18 37 -8 7 -14 23 -14 36 0 26 14 32 26 12 5 -8 11 -2 16 17 6 23 3
31 -12 42 -16 11 -17 18 -10 39 6 14 6 23 1 20 -16 -10 -41 5 -41 25 0 19 1
19 25 3 29 -19 30 -19 39 17 5 23 2 28 -19 33 -22 6 -24 9 -14 27 6 11 8 24 4
27 -3 3 -8 -3 -11 -15 -3 -12 -11 -20 -17 -19 -7 2 -9 1 -4 -1 13 -8 7 -41 -8
-47 -11 -4 -15 1 -15 19 0 14 -5 25 -11 25 -13 0 17 52 56 97 95 110 294 138
423 61z"/>
<path d="M5364 6551 c1 -9 -11 -17 -30 -21 -39 -9 -54 -18 -54 -34 0 -18 46
-17 61 0 30 37 128 -15 129 -68 0 -15 9 -17 67 -13 87 6 102 1 136 -43 22 -29
27 -44 23 -68 -8 -40 0 -46 39 -30 18 8 50 17 72 21 36 6 43 3 69 -24 40 -43
56 -98 37 -134 -20 -40 -9 -48 53 -42 51 5 58 3 84 -23 15 -16 35 -48 44 -73
15 -43 15 -43 16 -11 0 18 5 32 13 32 8 0 9 2 1 8 -6 4 -14 17 -18 29 -4 12
-21 34 -38 48 -26 22 -40 26 -78 23 l-45 -3 -1 35 c0 41 -34 118 -62 144 -26
22 -91 32 -130 18 -29 -10 -30 -9 -47 34 -9 24 -30 55 -46 69 -26 21 -41 25
-93 25 -57 0 -64 2 -84 30 -13 17 -39 34 -62 41 -31 9 -39 16 -35 29 3 10 0
17 -8 17 -8 0 -14 -7 -13 -16z"/>
<path d="M3895 4645 c11 -96 51 -302 84 -433 17 -66 31 -124 31 -127 0 -3 -15
6 -34 21 -28 23 -36 38 -46 88 -6 34 -25 115 -42 181 -30 119 -33 181 -13 290
3 17 2 23 -2 15 -3 -8 -24 -53 -46 -100 -60 -129 -150 -406 -222 -684 -69
-263 -72 -280 -53 -274 6 2 22 42 35 89 85 300 143 484 217 679 23 62 24 64
31 35 4 -16 18 -75 32 -130 14 -55 27 -110 30 -122 4 -19 1 -23 -18 -24 -23
-1 -23 -1 3 -11 18 -6 31 -20 37 -41 15 -52 88 -223 146 -345 55 -115 127
-229 233 -370 l60 -80 -13 -48 c-7 -27 -23 -83 -36 -124 l-23 -75 -8 65 c-14
121 -29 180 -65 267 -51 122 -99 177 -203 233 -76 40 -92 45 -150 44 -55 0
-76 -6 -137 -37 -40 -20 -80 -37 -90 -37 -15 0 -15 -2 2 -14 19 -14 18 -16
-21 -63 -28 -33 -50 -49 -70 -52 -26 -3 -24 -5 26 -23 l55 -19 38 43 c21 24
52 67 69 95 32 56 64 73 139 73 46 0 165 -58 150 -73 -8 -8 -6 -17 6 -31 10
-12 11 -15 3 -8 -25 22 -34 13 -11 -12 23 -25 22 -66 -2 -66 -6 0 -1 -7 11
-16 12 -8 22 -20 22 -25 0 -5 11 -22 25 -37 14 -15 25 -32 25 -37 0 -6 16 -35
35 -65 32 -51 35 -61 35 -133 0 -64 -5 -87 -26 -130 -39 -76 -60 -104 -116
-148 -58 -46 -50 -53 10 -9 73 53 130 143 139 221 10 83 27 72 20 -13 -9 -119
-61 -195 -165 -239 -25 -11 -42 -22 -39 -25 3 -3 15 0 27 6 12 6 24 9 27 6 7
-7 99 40 141 72 17 13 32 21 32 18 0 -4 -18 -42 -40 -85 -58 -116 -138 -229
-269 -380 -132 -151 -147 -171 -134 -171 15 0 233 255 305 356 37 52 88 138
114 192 26 53 48 98 49 100 1 1 26 -9 56 -23 59 -27 103 -34 54 -8 -16 8 -44
29 -61 45 l-32 30 45 131 c65 192 90 289 127 492 36 193 39 221 28 210 -5 -5
-22 -83 -38 -173 -17 -101 -32 -161 -38 -159 -14 4 -99 126 -181 258 -70 114
-139 255 -150 304 -6 27 -1 24 55 -35 34 -36 68 -78 76 -93 9 -16 18 -27 21
-24 9 10 -30 62 -103 137 -64 66 -75 83 -93 145 -29 101 -78 329 -96 452 -17
115 -32 158 -20 58z m111 -577 c11 -12 33 -57 49 -98 43 -113 133 -271 258
-453 74 -106 75 -108 64 -148 -5 -22 -13 -37 -17 -32 -67 76 -200 273 -243
359 -43 84 -152 347 -161 387 -6 25 -5 27 11 18 10 -5 27 -20 39 -33z"/>
<path d="M3392 4358 c-57 -256 -84 -434 -86 -565 0 -68 -5 -123 -10 -123 -5 0
-6 -101 -3 -242 6 -257 3 -265 -33 -68 -45 253 -54 333 -53 525 0 168 14 407
29 473 3 13 1 21 -4 18 -18 -11 -37 -271 -37 -491 0 -236 8 -301 77 -640 36
-182 49 -209 43 -95 -7 119 -12 519 -7 495 2 -11 8 -24 13 -30 5 -5 8 27 7 80
-1 79 -2 84 -8 40 l-7 -50 -1 57 c-3 106 63 520 112 706 8 28 11 52 7 52 -4 0
-22 -64 -39 -142z"/>
<path d="M3895 3566 c-27 -7 -63 -20 -80 -28 -46 -24 -97 -102 -109 -163 -3
-17 -10 -48 -15 -70 -6 -22 -10 -69 -10 -105 1 -51 3 -58 9 -35 4 17 8 26 9
20 1 -5 8 1 16 15 8 14 14 21 15 15 0 -5 20 21 45 58 64 95 95 88 92 -20 -2
-77 24 -113 84 -113 32 0 41 5 58 34 27 43 27 100 0 134 -12 16 -16 28 -10 30
17 6 13 20 -8 27 -11 3 -31 15 -46 26 -22 18 -24 23 -13 37 11 13 9 15 -15 10
-23 -4 -25 -3 -15 9 6 8 19 13 28 10 13 -3 15 3 12 30 -4 28 -1 35 17 40 15 4
21 12 19 27 -4 26 -19 28 -83 12z"/>
<path d="M4831 3248 c-80 -246 -250 -524 -498 -810 -111 -128 -125 -151 -43
-73 216 209 445 562 535 828 20 59 35 113 33 118 -2 6 -14 -22 -27 -63z"/>
<path d="M2760 2704 c9 -3 29 -51 52 -128 48 -156 83 -234 142 -314 76 -103
145 -115 225 -40 46 44 73 110 79 193 4 61 1 74 -18 98 -37 47 -264 153 -390
182 -57 13 -132 20 -90 9z m340 -135 c-11 -8 -8 -9 13 -4 21 4 27 3 21 -6 -4
-8 -3 -9 4 -5 16 10 66 -18 92 -51 19 -24 21 -37 18 -93 -11 -154 -125 -263
-220 -212 -33 18 -100 114 -115 164 -15 52 -17 108 -3 108 6 0 10 7 10 16 0 8
4 13 8 10 5 -3 25 6 45 19 20 14 42 25 49 26 7 0 27 9 43 19 32 20 60 27 35 9z"/>
<path d="M2770 7091 c0 -6 -10 -22 -22 -34 -25 -25 -27 -28 -33 -59 -2 -12 3
-15 20 -12 12 2 44 -1 71 -6 27 -6 73 -12 103 -15 29 -3 61 -10 71 -15 10 -6
30 -10 44 -10 17 0 24 -4 20 -13 -8 -22 21 -39 52 -31 l29 7 -35 14 c-32 12
-32 13 -5 7 17 -3 43 -6 58 -6 17 -1 24 -4 17 -8 -7 -5 -8 -10 -3 -13 6 -4 16
5 23 18 12 22 11 27 -6 40 -10 8 -25 15 -32 15 -7 0 -22 9 -34 20 l-22 20 38
0 c32 0 37 -3 32 -17 -6 -15 -4 -15 14 2 24 21 26 29 5 21 -8 -3 -21 4 -30 16
-13 20 -16 20 -27 6 -19 -23 -137 -50 -123 -28 3 6 -1 10 -10 10 -9 0 -13 5
-10 10 3 6 -1 10 -9 10 -8 0 -18 -5 -22 -12 -4 -7 -3 -8 4 -4 7 4 12 2 12 -3
0 -15 -11 -13 -34 4 -27 20 -45 19 -20 -1 17 -15 17 -15 -8 0 -31 18 -42 20
-33 6 3 -5 -1 -10 -10 -10 -9 0 -13 4 -10 10 4 6 -6 7 -24 4 -41 -8 -65 10
-50 38 6 11 8 22 5 26 -3 3 -6 0 -6 -7z"/>
<path d="M11795 6034 c11 -8 57 -26 102 -40 89 -27 123 -55 164 -136 20 -39
21 -88 3 -150 -4 -15 0 -17 24 -12 30 6 86 -17 146 -59 31 -22 72 -103 78
-152 l3 -29 -95 -22 c-57 -14 -99 -19 -105 -14 -8 6 -37 -42 -88 -148 -43 -86
-77 -161 -77 -167 0 -5 -17 -26 -37 -47 -20 -21 -32 -38 -26 -38 7 0 83 69
170 154 212 206 281 266 307 266 17 0 18 -2 6 -10 -26 -17 5 -11 136 27 71 20
132 41 136 47 4 6 11 11 16 11 17 0 145 79 134 83 -6 2 -33 -9 -59 -24 -31
-19 -43 -22 -34 -11 21 27 0 20 -31 -10 -26 -25 -28 -25 -34 -7 -22 62 -79
174 -105 207 l-30 37 26 10 c41 16 106 11 154 -10 24 -11 48 -20 55 -20 21 1
-27 29 -77 46 -44 15 -59 15 -113 4 -59 -11 -65 -11 -93 9 -16 12 -36 21 -44
21 -8 0 -41 26 -73 59 -50 49 -70 62 -129 81 -98 30 -246 45 -260 26 -9 -12
-22 -10 -85 10 -88 28 -91 28 -65 8z m240 -30 c18 5 25 0 35 -24 13 -30 53
-50 163 -80 91 -24 59 -1 -41 30 -91 28 -112 41 -112 70 0 14 140 -29 188 -56
42 -25 80 -69 68 -81 -9 -10 -146 17 -193 37 -48 21 -57 12 -16 -15 30 -20
208 -58 226 -49 7 3 4 -1 -5 -9 -10 -8 -18 -17 -18 -20 0 -4 8 -4 18 0 11 4
14 3 7 -4 -5 -6 -36 -18 -68 -27 -79 -23 -111 -36 -104 -42 3 -3 48 8 101 25
119 38 148 40 44 2 -104 -37 -113 -46 -90 -80 36 -51 35 -54 -12 -22 -26 18
-68 40 -93 48 -41 14 -44 17 -29 29 10 6 47 20 84 30 37 9 71 21 77 26 17 15
-42 8 -107 -12 -34 -11 -64 -20 -65 -20 -2 0 -3 19 -3 43 0 49 -25 95 -87 160
-42 45 -47 65 -11 46 11 -6 30 -8 43 -5z m411 -210 c-5 -13 -2 -15 13 -11 34
8 89 -64 96 -127 2 -17 10 -50 16 -73 14 -45 3 -72 -30 -74 -13 0 -12 -2 3 -8
29 -11 -119 -50 -170 -44 -38 4 -41 8 -51 46 -7 23 -15 50 -18 60 -6 13 -3 16
9 11 19 -7 22 16 4 34 -8 8 -9 12 -1 12 6 0 18 -7 27 -15 18 -19 26 -19 26 -2
0 8 19 20 43 27 44 14 64 26 56 34 -4 5 -70 -13 -110 -28 -10 -5 -25 7 -47 38
-18 24 -32 47 -32 49 0 3 29 15 65 27 36 12 65 26 65 31 0 5 7 9 15 9 8 0 15
5 15 10 0 6 3 10 6 10 3 0 3 -7 0 -16z m-218 -403 c22 -6 16 -13 -69 -91 -51
-47 -113 -105 -136 -130 l-43 -45 23 50 c89 189 103 214 122 218 31 6 78 6
103 -2z"/>
<path d="M1287 5273 c15 -27 84 -143 153 -258 69 -116 132 -224 140 -240 8
-17 24 -42 36 -57 12 -15 24 -33 27 -40 2 -7 8 -10 12 -6 4 3 -5 26 -19 51
-14 24 -26 48 -26 53 0 5 14 -15 31 -44 17 -30 34 -51 37 -47 9 9 9 29 1 35
-8 6 -129 199 -129 206 0 3 -11 20 -25 38 -14 18 -25 36 -25 40 0 3 -12 25
-27 49 -16 23 -30 47 -33 52 -5 10 -100 165 -107 174 -2 2 -6 2 -9 -1 -3 -3
33 -70 80 -148 47 -78 86 -146 86 -150 0 -5 4 -10 8 -12 8 -3 80 -126 94 -160
14 -35 -1 -17 -30 35 -72 129 -290 477 -299 477 -2 0 9 -21 24 -47z"/>
<path d="M12420 5129 c-52 -38 -130 -92 -172 -121 -67 -44 -93 -68 -73 -68 3
0 54 33 113 73 81 55 122 77 167 87 56 12 204 26 303 29 23 1 42 6 42 12 0 8
-45 9 -160 4 -112 -5 -160 -3 -160 4 0 6 3 11 8 11 4 0 18 9 32 20 16 12 20
19 10 19 -8 0 -58 -32 -110 -70z"/>
<path d="M6571 4603 c-7 -65 -21 -190 -31 -278 -11 -88 -24 -198 -30 -245 -5
-47 -17 -173 -25 -280 -8 -107 -22 -269 -30 -360 -21 -229 -30 -835 -16 -1095
24 -457 40 -647 81 -975 41 -324 97 -556 239 -970 98 -290 145 -400 166 -400
18 0 19 14 4 43 -8 16 -1 12 25 -12 61 -59 51 -26 -16 51 l-64 74 -96 289
c-124 374 -189 642 -219 910 -13 114 -20 226 -12 200 60 -218 202 -515 313
-655 52 -67 178 -184 272 -254 46 -33 90 -70 98 -81 8 -11 27 -33 42 -49 16
-15 35 -40 42 -55 17 -31 28 -37 161 -86 55 -21 119 -46 142 -56 24 -10 47
-19 53 -19 21 0 9 20 -22 37 -58 32 -158 98 -158 104 0 8 154 -53 158 -63 2
-4 9 -5 17 -2 7 3 55 -8 107 -24 179 -57 516 -136 803 -188 271 -49 324 -54
545 -54 240 0 736 27 760 40 20 12 22 12 -195 -5 -373 -30 -705 -31 -677 -3 6
6 8 16 5 23 -5 15 27 28 49 20 22 -9 78 66 143 191 l33 64 -61 33 c-167 92
-201 111 -207 118 -8 10 -75 43 -82 41 -5 -1 -8 2 -8 7 0 4 -19 21 -42 37 -24
16 -49 35 -57 42 -8 8 -30 24 -50 37 -20 12 -42 30 -50 39 -7 9 -17 16 -22 16
-5 0 -22 11 -37 24 -132 114 -249 205 -260 201 -7 -3 -10 0 -7 6 9 13 -25 50
-38 42 -5 -3 -7 -2 -4 4 9 15 -49 63 -75 63 -18 0 -20 2 -8 10 12 7 11 12 -8
28 -12 10 -20 21 -17 23 2 3 -5 10 -15 17 -16 9 -20 9 -20 0 0 -9 -3 -9 -12 0
-8 8 -17 0 -35 -36 -36 -72 -45 -85 -85 -125 -21 -21 -38 -40 -38 -42 0 -2
-20 -25 -45 -51 -25 -25 -45 -43 -45 -39 0 3 -7 -1 -16 -9 -17 -18 -39 -22
-29 -6 3 5 0 7 -7 5 -14 -6 -128 70 -128 84 0 5 -10 12 -22 15 -30 8 -110 81
-100 91 4 5 2 5 -5 1 -27 -15 -240 216 -368 399 -66 96 -239 386 -310 521 -60
115 -86 144 -109 124 -11 -8 -16 2 -25 47 -35 180 -70 701 -72 1083 -1 107 -4
179 -8 160 -8 -45 4 -552 18 -780 34 -528 144 -995 302 -1283 22 -38 39 -72
39 -74 0 -11 139 -216 195 -288 82 -105 154 -177 256 -257 108 -84 216 -149
304 -183 39 -15 93 -38 121 -51 28 -13 54 -24 58 -24 14 0 76 -47 70 -53 -3
-3 -14 -2 -23 3 -40 21 -112 41 -122 34 -8 -4 -9 -3 -5 4 6 11 -12 17 -36 13
-5 0 -8 4 -8 9 0 7 -7 7 -20 0 -15 -8 -20 -8 -18 2 2 6 -1 13 -7 13 -16 2 -47
15 -109 43 -5 3 -6 0 -2 -6 3 -6 2 -13 -4 -17 -5 -3 -10 1 -10 9 0 9 -5 16
-11 16 -6 0 -8 -7 -5 -16 3 -9 6 -22 6 -30 0 -9 4 -12 10 -9 6 4 10 -5 10 -19
0 -19 -5 -26 -20 -26 -11 0 -20 5 -20 11 0 5 -5 7 -11 3 -16 -9 58 -45 85 -40
12 2 15 1 9 -1 -23 -8 -14 -22 25 -40 20 -9 39 -19 42 -22 7 -9 43 -30 60 -37
39 -16 80 -35 80 -38 0 -5 -134 28 -220 54 -75 22 -120 40 -300 120 -98 43
-281 148 -327 187 -14 13 -30 23 -34 23 -18 0 -212 207 -259 277 -106 158
-211 396 -283 643 -28 92 -34 131 -42 260 -3 47 -12 157 -21 245 -24 246 -30
858 -11 1135 27 387 76 1019 92 1170 23 234 28 290 23 290 -3 0 -10 -53 -17
-117z m338 -2734 c199 -569 265 -690 507 -936 63 -63 111 -120 107 -126 -3 -5
-1 -7 5 -3 6 3 17 -2 24 -13 20 -28 107 -92 128 -94 10 -1 18 -6 17 -11 -1 -5
6 -12 17 -14 13 -3 16 0 11 9 -5 8 -4 10 4 5 7 -4 10 -13 8 -19 -2 -7 5 -17
17 -24 12 -7 15 -12 8 -13 -15 0 -124 65 -212 128 -238 170 -504 555 -623 902
-46 135 -122 456 -103 439 3 -3 41 -107 85 -230z"/>
<path d="M6106 3433 c-19 -59 -47 -157 -62 -218 -14 -60 -48 -189 -74 -285
-144 -520 -282 -1066 -330 -1298 -34 -167 -41 -316 -20 -436 13 -75 61 -224
99 -309 57 -126 251 -412 251 -369 0 12 -12 40 -26 62 -25 38 -26 41 -10 65
10 15 16 36 14 48 -3 20 -5 19 -23 -10 -10 -18 -22 -33 -25 -33 -9 0 -110 166
-142 233 -68 141 -107 280 -115 407 l-6 85 44 40 44 40 7 -80 c16 -181 73
-379 158 -550 l50 -100 -5 64 c-11 140 -16 499 -7 546 l10 50 1 -71 c2 -134
55 -645 73 -702 15 -51 21 -30 9 30 -7 29 -16 127 -22 218 -5 91 -17 215 -27
275 -27 175 -24 799 6 1072 30 280 31 274 -19 297 l-41 19 7 66 c4 36 25 134
47 216 77 292 88 333 133 530 25 109 43 200 41 202 -2 2 -20 -44 -40 -104z"/>
<path d="M7217 3271 c19 -63 38 -106 120 -271 171 -344 388 -603 654 -779 190
-126 705 -378 728 -356 3 3 0 10 -7 14 -9 5 -13 41 -14 118 l-2 110 -44 -4
c-25 -2 -47 -4 -51 -5 -19 -2 -35 8 -112 67 -46 36 -97 75 -113 88 -16 12 -45
36 -65 53 -37 31 -206 160 -576 438 -115 87 -217 166 -226 176 -9 10 -47 42
-85 71 -112 84 -128 99 -117 110 7 7 43 -16 106 -66 54 -41 100 -75 103 -75 3
0 171 -118 372 -262 314 -224 560 -396 620 -433 9 -5 23 -16 32 -24 13 -13 15
-12 19 4 3 20 -46 68 -61 59 -4 -3 -8 -1 -8 4 0 5 -29 27 -65 48 -36 21 -64
43 -61 49 2 7 -64 57 -147 112 -84 56 -224 151 -312 213 -88 62 -209 146 -270
188 -116 79 -162 115 -115 92 38 -20 626 -409 695 -460 56 -42 161 -116 309
-220 71 -49 78 -59 96 -143 12 -52 15 -57 34 -50 12 4 39 8 61 8 l40 0 0 -148
c0 -81 0 -147 1 -147 0 0 94 -18 210 -40 469 -91 694 -172 974 -355 133 -86
231 -167 369 -305 98 -99 123 -119 147 -118 39 1 95 -28 243 -125 68 -45 128
-81 133 -79 5 1 18 -3 30 -9 l21 -11 -21 28 c-11 16 -46 57 -77 92 -32 35 -56
64 -54 66 2 2 18 7 34 10 24 5 43 -2 103 -39 76 -47 107 -58 79 -27 -10 10
-17 21 -17 25 0 3 -16 33 -36 67 -21 35 -33 68 -30 77 9 22 -13 83 -38 108
-12 12 -45 41 -75 65 -47 38 -54 42 -63 27 -14 -26 -29 -20 -22 8 6 25 -4 42
-37 61 -9 5 -38 28 -65 51 -65 56 -238 191 -294 231 -54 38 -90 68 -90 76 0 3
14 3 30 0 19 -4 30 -2 30 5 0 6 8 11 18 10 10 0 12 -3 5 -6 -7 -2 -13 -9 -13
-14 0 -14 28 -11 33 4 3 7 6 5 6 -5 1 -10 7 -18 15 -18 20 0 29 30 11 36 -8 4
-12 10 -9 15 5 8 -6 20 -66 72 -11 10 -25 15 -31 12 -5 -4 -8 -3 -7 2 9 27
-142 121 -307 192 -78 33 -114 56 -163 102 -62 56 -64 60 -57 96 11 69 30 83
124 91 l83 7 -103 71 c-57 39 -118 78 -134 87 -43 22 -170 61 -300 93 -60 15
-113 32 -116 37 -4 5 -10 4 -14 -3 -4 -7 -3 -15 3 -19 5 -3 10 -19 10 -35 0
-15 5 -31 11 -35 6 -4 9 -15 5 -24 -4 -10 0 -19 9 -23 13 -5 11 -11 -9 -42
-34 -50 -37 -51 -29 -17 7 28 6 29 -7 11 -11 -14 -17 -16 -23 -6 -4 7 -2 16 6
21 7 4 10 11 7 15 -4 3 -29 32 -55 62 -70 82 -112 122 -126 122 -6 0 -23 -25
-35 -54 l-24 -54 -66 25 c-37 13 -75 27 -84 30 -18 5 -33 33 -18 33 13 0 8 21
-8 39 -7 7 -10 21 -7 29 3 9 3 13 -1 9 -4 -4 -12 0 -18 7 -6 8 -90 44 -186 81
-96 36 -213 81 -260 99 -201 79 -494 191 -886 339 l-221 83 14 -45z"/>
<path d="M1 3209 c-1 -78 51 -181 174 -344 202 -268 225 -292 455 -484 69 -57
145 -121 170 -141 133 -112 248 -204 343 -275 83 -63 105 -84 100 -99 -3 -10
-32 -64 -66 -120 -81 -136 -205 -257 -387 -378 l-135 -89 -48 53 c-70 77 -186
230 -249 328 -120 186 -196 352 -294 645 -51 154 -63 182 -64 148 0 -44 83
-297 152 -463 106 -256 301 -551 491 -742 48 -49 87 -93 87 -98 0 -6 6 -10 13
-10 6 0 63 -38 126 -85 126 -95 237 -160 386 -227 124 -56 320 -135 445 -178
52 -18 99 -36 104 -41 23 -20 -386 -23 -624 -4 -41 3 -37 1 15 -6 148 -20 150
-25 10 -22 -153 3 -276 16 -400 40 -84 16 -210 58 -234 77 -48 38 -407 549
-515 733 -27 46 -51 83 -54 83 -3 0 -2 -26 1 -58 4 -45 11 -65 31 -87 14 -15
26 -34 26 -41 0 -7 11 -25 25 -40 14 -15 25 -35 25 -45 0 -11 5 -18 12 -17 6
2 14 -5 16 -15 2 -10 19 -34 38 -55 19 -20 34 -42 34 -48 0 -6 10 -20 22 -31
39 -35 59 -64 52 -75 -4 -6 -3 -8 4 -4 6 3 13 2 17 -4 3 -5 1 -10 -4 -10 -6 0
-11 -4 -11 -9 0 -5 6 -8 13 -7 6 0 14 -3 16 -9 8 -18 26 -33 33 -29 4 3 14 -8
22 -23 8 -15 15 -22 16 -15 0 7 4 11 10 7 5 -3 7 -12 4 -19 -3 -7 2 -16 11
-20 9 -3 13 -11 10 -16 -4 -6 -1 -9 7 -8 7 2 12 -3 10 -10 -1 -8 2 -11 7 -7
10 6 47 -53 43 -68 -1 -5 2 -6 7 -3 5 4 19 -7 30 -23 21 -28 18 -28 -152 38
-94 37 -216 86 -269 109 -54 23 -100 42 -103 42 -3 0 -5 -13 -5 -30 0 -18 5
-30 13 -30 7 0 108 -38 224 -84 117 -46 235 -92 262 -101 28 -9 51 -18 51 -20
0 -13 -165 -119 -310 -198 -229 -124 -240 -131 -240 -140 0 -5 16 0 35 11 19
12 115 64 213 117 98 53 211 121 251 151 l73 54 41 -14 c23 -7 57 -17 75 -21
38 -8 34 -21 -11 -30 -69 -15 -306 -100 -392 -140 -92 -43 -269 -148 -281
-166 -12 -19 3 -19 27 0 62 48 220 136 308 171 236 92 245 95 237 74 -3 -8
-23 -41 -45 -73 -32 -47 -58 -70 -130 -115 -81 -50 -107 -60 -243 -94 -136
-34 -153 -40 -156 -60 l-3 -22 45 19 c50 22 201 71 218 71 5 0 -36 -38 -93
-85 -156 -126 -174 -143 -168 -149 3 -4 37 21 75 55 96 85 245 199 261 199 7
0 13 4 13 9 0 10 112 82 118 76 2 -2 -25 -50 -60 -107 -36 -57 -81 -133 -102
-170 l-37 -68 31 0 c17 0 29 4 26 9 -3 5 3 20 14 33 10 14 22 37 25 51 4 15
11 24 16 21 5 -3 9 3 9 14 0 10 8 27 18 38 9 10 24 33 32 49 19 37 36 56 44
48 3 -4 6 1 6 11 0 26 52 101 63 90 2 -3 7 2 11 11 4 11 2 14 -7 10 -6 -4 -1
3 13 14 14 11 30 20 35 20 6 0 4 -3 -3 -6 -18 -7 -14 -19 7 -19 11 0 18 3 15
7 -2 4 5 18 16 30 l21 24 -14 -35 c-8 -19 -37 -82 -64 -140 -28 -58 -60 -128
-73 -157 -17 -38 -27 -50 -39 -46 -14 4 -14 3 -1 -6 12 -8 13 -16 3 -41 l-11
-30 102 0 103 0 124 123 c111 111 371 336 453 394 30 22 41 23 243 24 117 0
216 -2 221 -5 16 -9 222 12 238 25 31 26 9 41 -126 88 -181 63 -233 83 -243
91 -10 9 237 159 319 193 32 14 62 22 65 19 9 -10 89 -324 89 -348 0 -12 -6
-40 -14 -62 -8 -23 -19 -73 -25 -112 -10 -73 -31 -120 -55 -120 -7 0 -30 12
-51 26 l-38 25 -51 -21 c-182 -78 -289 -147 -406 -261 -74 -73 -75 -74 -46
-77 24 -3 39 7 90 57 l61 60 80 -42 c44 -23 91 -50 105 -59 13 -10 31 -18 40
-18 23 1 -10 23 -118 82 l-93 50 48 35 c26 19 73 47 103 63 l55 28 103 -67
c56 -37 134 -95 173 -130 38 -35 72 -61 75 -58 10 10 -122 120 -227 189 l-109
73 61 29 61 29 47 -22 c198 -96 408 -244 398 -282 -9 -33 36 -23 74 17 59 62
251 220 324 267 39 24 120 70 182 100 l111 56 78 -50 78 -51 -55 -30 c-30 -17
-72 -41 -95 -54 -82 -46 -342 -260 -330 -271 3 -3 45 31 95 75 49 44 113 98
143 120 71 52 230 142 251 142 10 0 65 -32 124 -71 l105 -71 -81 -42 c-87 -44
-237 -149 -221 -154 5 -2 47 24 92 57 89 64 163 102 184 94 7 -2 22 1 34 7 26
14 31 11 155 -89 71 -57 94 -71 122 -71 l35 0 -44 36 c-92 78 -208 164 -323
241 -222 149 -336 223 -346 223 -19 0 -247 -120 -321 -169 -40 -26 -107 -75
-148 -109 -41 -34 -76 -59 -79 -57 -7 8 62 90 124 146 188 170 303 221 498
218 51 0 109 2 130 6 46 9 27 21 411 -254 159 -113 292 -206 297 -206 4 0 31
-17 58 -38 28 -20 58 -37 68 -37 16 1 16 2 -2 12 -11 6 -27 18 -35 28 -8 9
-112 89 -231 177 -119 89 -225 174 -236 189 -23 32 -114 221 -145 299 -34 87
-98 275 -133 395 -37 126 -47 133 -15 12 48 -188 169 -516 230 -623 22 -39 39
-74 37 -76 -3 -2 -51 29 -108 69 -58 40 -206 141 -331 223 -125 83 -233 161
-242 175 -30 52 -98 358 -115 520 -14 135 -25 431 -17 471 6 33 9 35 84 56 73
21 219 43 289 43 28 0 32 -3 36 -32 l4 -33 1 31 c2 31 2 31 80 41 71 10 66 10
-63 6 -147 -5 -266 -21 -375 -50 l-65 -18 -3 -115 c-1 -63 1 -177 5 -253 5
-76 7 -140 5 -141 -4 -4 -179 46 -292 84 -52 18 -108 36 -125 41 -28 8 -29 7
-11 -6 11 -8 27 -15 36 -15 9 0 20 -4 26 -9 5 -4 27 -13 49 -19 22 -5 65 -20
95 -32 30 -12 62 -23 70 -24 9 -1 20 -4 25 -7 6 -3 31 -12 57 -19 42 -11 49
-17 58 -49 5 -20 10 -53 10 -73 0 -20 5 -49 11 -65 6 -15 11 -45 11 -65 0 -21
3 -36 7 -34 4 3 7 -7 6 -21 0 -36 -16 -38 -45 -8 -13 14 -29 25 -37 25 -7 0
-13 4 -13 8 0 4 -15 13 -33 20 -18 7 -43 21 -55 32 -12 12 -22 17 -22 13 0 -4
-5 0 -11 10 -5 9 -18 17 -28 17 -9 0 -27 9 -39 20 -12 11 -25 20 -30 20 -5 0
-17 9 -27 20 -10 11 -21 17 -25 15 -5 -3 -10 -2 -12 2 -1 5 -23 19 -48 32 -25
14 -50 30 -57 35 -34 30 -43 36 -52 36 -6 0 -22 11 -37 25 -15 14 -33 25 -40
25 -8 0 -36 16 -63 35 -51 37 -61 41 -61 25 0 -5 6 -10 14 -10 8 0 16 -4 18
-9 2 -4 39 -31 83 -60 44 -28 157 -101 250 -162 94 -61 224 -145 290 -188 112
-72 122 -81 139 -125 10 -26 16 -49 14 -52 -6 -5 -1245 819 -1438 957 -80 57
-223 167 -319 244 -95 77 -198 158 -227 180 -55 41 -305 256 -360 310 -37 36
-173 192 -212 243 -15 20 -36 45 -47 56 -70 71 -131 184 -198 366 -3 8 -6 -10
-6 -41z m1283 -1370 c-3 -5 -2 -9 3 -8 23 4 35 -2 29 -17 -4 -12 -1 -14 14 -9
22 7 28 -10 8 -19 -7 -3 -1 -3 15 0 31 7 37 -3 8 -14 -19 -7 -18 -8 5 -19 22
-10 25 -10 20 3 -7 18 -1 18 32 -3 35 -23 43 -34 36 -55 -2 -9 0 -19 6 -23 5
-3 10 -1 10 4 0 6 5 11 11 11 5 0 7 -5 3 -12 -5 -8 2 -9 24 -5 20 4 32 2 32
-4 0 -6 -5 -7 -12 -3 -8 5 -9 2 -5 -9 7 -19 -4 -21 -100 -17 -52 2 -63 -1 -63
-14 0 -19 -10 -20 -45 -4 -18 8 -22 14 -13 20 10 6 8 8 -4 8 -10 0 -19 8 -20
18 0 9 -2 22 -2 29 -1 6 -5 15 -9 19 -6 6 -12 -54 -8 -79 1 -5 -6 -7 -16 -5
-10 2 -19 10 -19 18 -1 8 -3 20 -4 25 -1 6 -1 18 0 29 1 11 -3 15 -9 12 -6 -4
-11 -2 -11 4 0 7 9 14 20 17 11 3 20 12 20 20 0 8 -5 11 -12 8 -7 -4 -2 2 12
14 14 11 25 26 26 33 0 7 2 21 2 31 1 10 7 15 12 12 6 -4 8 -11 4 -16z m-260
-331 c-43 -70 -226 -261 -278 -290 -8 -4 -23 3 -40 21 l-26 27 77 49 c116 73
184 123 225 166 37 38 57 51 42 27z m1331 -375 c116 -76 267 -177 338 -223 70
-46 127 -88 127 -94 0 -17 -94 -134 -173 -215 -82 -84 -170 -152 -232 -180
-44 -20 -186 -55 -268 -67 l-48 -6 8 28 c4 16 7 63 7 104 -1 72 -17 143 -89
405 -31 111 -32 200 -5 273 11 29 20 61 20 72 0 11 7 35 16 54 l17 34 36 -23
c20 -12 131 -85 246 -162z m731 -480 c97 -65 140 -99 132 -104 -7 -5 -71 -8
-143 -7 -152 1 -214 -15 -331 -87 -94 -59 -239 -196 -296 -282 -54 -80 -106
-132 -116 -117 -25 36 -205 161 -311 214 -24 12 -40 25 -35 30 5 5 74 20 154
34 260 45 353 91 510 252 126 129 132 134 141 129 4 -3 11 0 15 6 12 21 69 39
103 33 18 -3 96 -47 177 -101z"/>
<path d="M7700 2106 c0 -11 147 -209 245 -331 220 -275 509 -564 820 -823 61
-51 117 -98 125 -105 97 -81 362 -265 560 -389 227 -141 260 -156 465 -209
207 -53 235 -57 235 -34 0 19 4 19 146 -6 71 -12 126 -27 137 -37 14 -13 20
-13 26 -4 18 29 318 -50 487 -128 l87 -40 198 0 199 0 0 58 c0 32 -5 96 -11
142 -7 47 -11 95 -10 107 1 29 -19 40 -34 19 -7 -9 -26 -26 -44 -39 -17 -12
-76 -64 -131 -116 -55 -51 -100 -90 -100 -86 0 4 45 53 99 109 95 98 121 139
121 197 0 27 13 31 26 7 l12 -23 7 28 c8 31 -11 87 -30 87 -6 0 -38 -9 -70
-20 -32 -11 -74 -20 -93 -20 -19 0 -82 -12 -141 -26 -99 -24 -111 -24 -191
-13 -47 6 -97 11 -112 10 -28 -1 -28 -1 -28 66 0 144 -39 267 -126 399 -61 91
-59 88 -36 75 12 -6 24 -15 27 -21 6 -9 77 -59 105 -73 8 -5 -1 4 -20 20 -19
15 -55 47 -80 69 -40 37 -114 73 -126 62 -2 -3 20 -36 50 -73 71 -89 141 -224
162 -311 18 -77 15 -275 -7 -392 -13 -71 -7 -68 -118 -44 l-74 17 -32 130
c-18 72 -42 155 -54 186 -71 187 -301 456 -507 592 -187 124 -561 282 -1114
472 -561 192 -683 251 -1002 482 -27 19 -48 32 -48 29z"/>
<path d="M7951 1670 c40 -60 183 -251 263 -350 199 -245 375 -409 596 -555
123 -81 410 -248 416 -242 2 2 -52 41 -119 87 -255 178 -582 455 -819 696
-111 114 -170 179 -321 355 -32 36 -34 38 -16 9z"/>
<path d="M6750 792 c0 -11 15 -38 33 -62 17 -23 39 -54 48 -67 9 -14 62 -78
118 -143 154 -181 348 -338 523 -423 110 -54 142 -62 330 -82 170 -18 983 -22
993 -5 8 14 -13 20 -115 36 -97 15 -339 74 -453 111 -43 14 -84 22 -92 19 -8
-3 -15 -2 -15 2 0 4 -39 21 -87 37 -49 15 -103 35 -121 44 -29 14 -34 14 -43
1 -9 -13 -10 -13 -6 2 4 12 -3 19 -24 27 -16 5 -29 7 -29 3 0 -4 -5 0 -10 8
-8 12 -10 9 -10 -12 0 -18 -5 -28 -15 -28 -8 0 -15 -4 -15 -10 0 -5 6 -10 14
-10 15 0 31 -63 21 -80 -7 -12 -44 -4 -107 23 -26 11 -44 25 -41 30 3 6 2 7
-4 4 -5 -3 -26 -2 -46 4 -28 7 -35 14 -31 27 5 14 4 14 -4 2 -9 -12 -18 -10
-63 10 -80 37 -208 120 -332 215 -131 99 -196 155 -182 156 6 0 0 4 -12 9 -14
6 -21 15 -17 24 3 8 1 17 -5 21 -7 4 -8 0 -4 -11 4 -12 2 -15 -8 -12 -8 3 -13
12 -13 21 1 9 -3 14 -8 11 -5 -3 -40 22 -78 55 -72 64 -90 73 -90 43z m317
-281 c243 -198 396 -285 678 -388 83 -30 152 -57 155 -60 15 -15 -36 -23 -115
-17 -182 13 -326 71 -500 201 -101 75 -322 292 -375 368 l-34 50 31 -25 c18
-14 90 -72 160 -129z"/>
</g>
</svg>
